<?xml version="1.0" standalone="no"?>
<!DOCTYPE svg PUBLIC "-//W3C//DTD SVG 1.1//EN" "http://www.w3.org/Graphics/SVG/1.1/DTD/svg11.dtd" >
<svg>
<metadata>
Created by FontForge 20090622 at Mon Dec 11 19:21:00 2017
 By deploy user
Copyright (c) 2005-2010 by Jovanny Lemonad. All rights reserved.
</metadata>
<defs>
<font id="Neucha" horiz-adv-x="457" >
  <font-face 
    font-family="Neucha"
    font-weight="400"
    font-stretch="normal"
    units-per-em="1024"
    panose-1="2 0 5 6 5 0 0 2 0 4"
    ascent="819"
    descent="-205"
    x-height="513"
    cap-height="731"
    bbox="-82 -296 1070 981"
    underline-thickness="51"
    underline-position="-51"
    unicode-range="U+0020-U+2122"
  />
<missing-glyph horiz-adv-x="512" 
 />
    <glyph glyph-name=".notdef" horiz-adv-x="512" 
 />
    <glyph glyph-name="NULL" horiz-adv-x="0" 
 />
    <glyph glyph-name="nonmarkingreturn" horiz-adv-x="286" 
 />
    <glyph glyph-name="space" unicode=" " horiz-adv-x="286" 
 />
    <glyph glyph-name="exclam" unicode="!" horiz-adv-x="186" 
d="M112 172l-45 10q-5 66 -26 524q4 39 35 39q20 0 37 -17t18 -42q-3 -54 -7 -235t-12 -279zM82 116q27 0 45 -23.5t18 -53.5q0 -22 -10.5 -35.5t-28.5 -13.5q-28 0 -44 23t-16 54q0 22 9.5 35.5t26.5 13.5z" />
    <glyph glyph-name="quotedbl" unicode="&#x22;" horiz-adv-x="266" 
d="M88 527l-45 11l-23 161q2 20 12 30t23 10q20 0 37.5 -17t18.5 -42zM223 527l-45 11l-22 161q4 40 34 40q20 0 37.5 -17t18.5 -42z" />
    <glyph glyph-name="numbersign" unicode="#" horiz-adv-x="622" 
d="M10 243l-10 45l136 6l40 141h-93q-21 4 -35.5 20.5t-14.5 34.5q0 26 30 35q67 -7 137 -12q51 171 64 204h62q-32 -85 -67 -208q54 -4 172 -10q53 178 70 221h61q-25 -61 -70 -224l120 -9l11 -45q-48 -4 -148 -8l-34 -127l64 3q25 -1 42 -18t17 -37q0 -13 -10 -23t-30 -12
q-66 2 -103 4q-41 -158 -59 -216q-13 -5 -37 -5h-35q3 9 11.5 38l24.5 87l28 99l-167 7l-24 -91l-22.5 -87t-14.5 -51q-13 -5 -38 -5h-35q6 17 68 238zM239 432l-36 -135l173 7l36 129q-58 -1 -173 -1z" />
    <glyph glyph-name="dollar" unicode="$" horiz-adv-x="478" 
d="M214 829l45 -10l5 -59q66 -13 166 -58l-12 -40q-88 28 -149 36q12 -186 16 -279q79 -30 126 -103t47 -152q0 -72 -45.5 -119.5t-117.5 -49.5q0 -7 0.5 -20t0.5 -20q-9 -31 -35 -31q-18 0 -34.5 14.5t-20.5 35.5q0 9 2 27q-122 17 -170 56l14 56q81 -43 159 -46
q5 111 7 291q-95 26 -146.5 87.5t-51.5 133.5q0 71 51 130t123 59q14 0 21 -1q0 11 -0.5 31.5t-0.5 30.5zM217 700q-44 0 -75 -32t-31 -78q0 -44 27.5 -85t80.5 -65q0 92 -2 260zM294 76q36 14 55.5 35t19.5 58q0 41 -21 86t-54 73v-252z" />
    <glyph glyph-name="percent" unicode="%" horiz-adv-x="674" 
d="M545 773l53 -36q-20 -45 -216.5 -359.5t-221.5 -375.5q-14 -17 -35 -17q-20 0 -34.5 15.5t-14.5 36.5q0 11 6 23q48 60 222.5 326t240.5 387zM353 135q0 64 51 118.5t116 54.5q59 0 107 -49.5t48 -111.5q0 -68 -44 -120t-111 -52q-65 0 -116 45.5t-51 114.5zM519 243
q-39 0 -71.5 -32t-32.5 -72t31 -68t73 -28q40 0 68.5 30t28.5 73q0 37 -29.5 67t-67.5 30zM0 624q0 64 51 118.5t116 54.5q59 0 107 -49.5t48 -111.5q0 -68 -44 -120t-111 -52q-65 0 -116 45.5t-51 114.5zM166 731q-39 0 -72 -31.5t-33 -71.5t31.5 -68.5t73.5 -28.5
q40 0 68.5 30.5t28.5 73.5q0 36 -29.5 66t-67.5 30z" />
    <glyph glyph-name="ampersand" unicode="&#x26;" horiz-adv-x="570" 
d="M438 535l50 -4q3 -19 13 -134q1 0 20 1t28 1t9 -1q12 -24 12 -61v-6h-62q3 -25 3 -51q0 -115 -62 -191t-187 -89q-25 0 -52 4.5t-60.5 19t-59.5 36t-46 60t-24 87.5q0 55 23 102.5t67 73.5q-74 57 -74 135q0 75 62.5 126t146.5 51q63 0 100 -15l-15 -38q-25 4 -60 4
q-66 0 -112.5 -30t-46.5 -94q0 -132 219 -132q20 0 58.5 1.5t57.5 1.5q-7 60 -8 142zM444 330l-254 11q-85 -64 -85 -127q0 -54 47.5 -96t107.5 -47q79 0 134 71.5t55 150.5q0 19 -5 37z" />
    <glyph glyph-name="quotesingle" unicode="'" horiz-adv-x="131" 
d="M88 527l-45 11l-23 161q2 20 12 30t23 10q20 0 37.5 -17t18.5 -42z" />
    <glyph glyph-name="parenleft" unicode="(" horiz-adv-x="201" 
d="M115 762l44 -13q-55 -255 -55 -389q0 -49 7 -100.5t15 -88.5t25.5 -110l29.5 -127q-1 -46 -31 -46q-12 0 -25 9t-19 25q-4 17 -14.5 66l-15.5 71.5t-13 66.5t-12 73.5t-7 68.5t-3 74q0 144 74 420z" />
    <glyph glyph-name="parenright" unicode=")" horiz-adv-x="201" 
d="M43 749l44 13q74 -276 74 -420q0 -29 -1.5 -58t-6.5 -64l-8 -56t-11.5 -64t-11.5 -56t-14 -64t-13 -58q-14 -34 -43 -34q-13 0 -22 11.5t-10 34.5l29.5 127t25.5 110t15 88.5t7 100.5q0 138 -54 389z" />
    <glyph glyph-name="asterisk" unicode="*" horiz-adv-x="364" 
d="M32 719l31 26l102 -96q0 21 -3 57t-3 51q0 14 1 20l45 -10q0 -17 -4 -49.5t-4 -48.5q10 10 32 34.5l41.5 44.5t34.5 30l29 -39l-50.5 -50t-59.5 -61q15 1 57.5 7.5t55.5 7.5q9 -16 14.5 -31.5t9 -32l4.5 -21.5q-16 1 -66.5 9.5t-65.5 9.5q17 -15 64.5 -52t63.5 -51
l-19.5 -15.5t-13 -9t-15.5 -8t-19 -10.5q-14 15 -44 59t-44 59q0 -7 8 -59t9 -59h-7q-39 1 -77 8l8 124q-8 -10 -38.5 -64.5t-50.5 -67.5q-14 6 -21 14.5t-17 28t-20 35.5q50 24 94 64q-11 1 -44.5 8.5t-39.5 8.5l-10 45q1 0 5 0.5t6 0.5q15 0 56 -4t54 -4q-9 10 -43 42.5
t-46 48.5z" />
    <glyph glyph-name="plus" unicode="+" horiz-adv-x="454" 
d="M178 571l45 -10l9.5 -98t9.5 -95l153 9q25 -1 42.5 -18t17.5 -37q0 -13 -10 -23t-30 -12q-44 2 -166 10q2 -22 9 -83t10 -102q-9 -31 -35 -31q-18 0 -34.5 14.5t-20.5 35.5q1 26 1 76q0 11 -2 93l-167 9l-10 45l175 10q-1 27 -1 80q0 70 4 127z" />
    <glyph glyph-name="comma" unicode="," horiz-adv-x="167" 
d="M22 -120l-2 32q72 25 72 68q0 7 -4 23q-14 -2 -19 -2q-19 0 -30 25.5t-11 49.5q0 22 9 35.5t26 13.5q38 0 61 -44t23 -88q0 -47 -31 -78.5t-94 -34.5z" />
    <glyph glyph-name="hyphen" unicode="-" horiz-adv-x="433" 
d="M31 298l-11 45l333 23q25 -1 42.5 -18.5t17.5 -37.5q0 -13 -10 -23t-30 -12z" />
    <glyph glyph-name="period" unicode="." horiz-adv-x="140" 
d="M56 125q27 0 45.5 -23.5t18.5 -53.5q0 -22 -10.5 -35.5t-28.5 -13.5q-28 0 -44.5 23t-16.5 54q0 22 9.5 35.5t26.5 13.5z" />
    <glyph glyph-name="slash" unicode="/" horiz-adv-x="459" 
d="M415 846l45 -17q-38 -130 -187.5 -457.5t-188.5 -458.5q-14 -17 -35 -17q-20 0 -34.5 15.5t-14.5 36.5q0 44 91.5 232l197 395t126.5 271z" />
    <glyph glyph-name="zero" unicode="0" horiz-adv-x="518" 
d="M41 333q1 216 56 311.5t167 101.5q49 0 87 -27t60.5 -68.5t37.5 -99t20.5 -109t7.5 -109.5q0 -79 -23.5 -161.5t-72 -144t-108.5 -61.5q-232 0 -232 367zM250 669q-24 -5 -43 -16t-31.5 -25t-21.5 -37t-13.5 -42.5t-8 -50.5t-4.5 -53.5l-2.5 -59t-3.5 -59.5
q0 -46 5 -87.5t18.5 -86.5t42.5 -73t70 -32q62 0 102.5 86t40.5 174q0 358 -151 362z" />
    <glyph glyph-name="one" unicode="1" horiz-adv-x="361" 
d="M46 3v53q24 3 59.5 10t55.5 10q3 72 3 145q0 46 -1 138.5t-1 139.5q0 111 3 168q-91 -52 -133 -84l-32 33l55 45.5l70 59t48 43.5q16 -2 33 -2.5t33 -2.5q6 -116 6 -425q0 -184 3 -264q9 -1 43.5 -7.5t53.5 -8.5l16 -53h-87h-98.5t-96 0.5t-33.5 1.5z" />
    <glyph glyph-name="two" unicode="2" horiz-adv-x="405" 
d="M375 69l31 -66q-75 -2 -235 -2.5t-170 -0.5q0 8 -0.5 28t-0.5 32q19 33 63 79.5l88 91t86.5 97.5t69.5 118.5t27 134.5q0 44 -31 71.5t-75 27.5q-51 0 -94.5 -41.5t-60.5 -126.5l-45 16q4 97 63.5 151t137.5 54q70 0 120 -44t50 -123q0 -65 -20 -126.5t-58 -115.5
t-71 -92.5t-82.5 -89t-69.5 -72.5q34 -2 58 -2q25 0 78 1.5t79 1.5q24 0 62 -2z" />
    <glyph glyph-name="three" unicode="3" horiz-adv-x="413" 
d="M0 32l8 46q8 -1 45.5 -9t67 -12t52.5 -4q57 0 89.5 43t32.5 100q0 78 -53.5 134.5t-154.5 56.5q-16 0 -24 -1v49q9 -1 28 -1q91 0 148.5 32t57.5 102q0 53 -30 85t-78 32q-22 0 -47.5 -2.5t-55.5 -6.5t-38 -5l-16 45q12 3 39 11t42.5 12t39.5 7.5t45 3.5q77 0 122 -53.5
t45 -146.5q0 -59 -28.5 -97t-86.5 -47q60 -24 91.5 -78.5t31.5 -128.5q0 -85 -40 -145.5t-121 -60.5q-117 0 -212 39z" />
    <glyph glyph-name="four" unicode="4" horiz-adv-x="440" 
d="M410 291l10 -45q-52 -6 -74 -8q2 -46 5.5 -116t4.5 -115q-9 -31 -34 -31q-18 0 -35 15t-21 36q1 31 7 204q-32 -2 -51 -2q-30 0 -92.5 3.5t-91.5 3.5q-14 0 -38 -2q2 24 2 33q0 6 -0.5 19.5t-0.5 20.5q167 281 270 417q31 0 85 -13q-2 -47 -5.5 -203.5t-6.5 -211.5
q44 -2 66 -5zM74 304l201 -6q3 57 6 169t5 169q-41 -42 -118.5 -175.5t-93.5 -156.5z" />
    <glyph glyph-name="five" unicode="5" horiz-adv-x="437" 
d="M397 710l11 -45q-49 -9 -112 -9q-94 0 -120 -3q-15 -115 -39 -244q29 6 56 6q88 0 156 -69.5t68 -160.5q0 -86 -67 -147t-165 -61q-95 0 -185 63q1 1 15.5 32t28.5 31q7 0 13 -5q69 -52 130 -52q62 0 102 49t40 110q0 57 -37.5 97t-109.5 40q-26 0 -49 -4q-20 11 -44 22
t-40 19q23 90 38 180t40 161q35 -3 129 -3t141 -7z" />
    <glyph glyph-name="six" unicode="6" horiz-adv-x="458" 
d="M396 724l17 -45q-234 -100 -278 -268q40 26 81 26q86 0 144 -77.5t58 -197.5q0 -86 -52.5 -137t-133.5 -51q-76 0 -133.5 55.5t-57.5 147.5q0 58 2.5 101t11 94.5t23.5 89.5t41.5 79.5t63.5 73t90.5 60t122.5 49.5zM113 206q0 -83 31 -124.5t77 -41.5q49 0 85 33t36 91
q0 88 -40 147t-97 59q-26 0 -44 -9.5t-27 -21.5t-14 -37.5t-6 -43t-1 -52.5z" />
    <glyph glyph-name="seven" unicode="7" horiz-adv-x="398" 
d="M124 -8l-78 23l270 662q-233 7 -316 14l-10 45q70 8 212 8.5t196 4.5l-5 -87z" />
    <glyph glyph-name="eight" unicode="8" horiz-adv-x="506" 
d="M466 201q0 -109 -53 -161.5t-162 -52.5q-210 0 -210 218q0 78 32 137t88 68q-57 1 -86 42t-29 102q0 94 51.5 148t146.5 54q100 0 157 -50t57 -154q0 -61 -29 -102t-86 -42q58 -9 90.5 -69t32.5 -138zM262 59q56 0 93 43.5t37 103.5t-41 103.5t-110 44.5
q-60 -18 -90 -56.5t-30 -86.5q0 -60 40 -106t101 -46zM262 701q-67 -5 -102 -44t-35 -90q0 -52 33.5 -90t89.5 -38q65 1 99 35.5t34 83.5t-32.5 91t-86.5 52z" />
    <glyph glyph-name="nine" unicode="9" horiz-adv-x="448" 
d="M52 -19l-16 45q233 99 277 268q-42 -27 -81 -27q-86 0 -143.5 77.5t-57.5 198.5q0 86 52 136.5t133 50.5q77 0 134.5 -55.5t57.5 -147.5q0 -58 -2.5 -101t-11 -94t-23.5 -89.5t-41.5 -80t-63.5 -72.5t-91 -59.5t-123 -49.5zM336 499q0 83 -31.5 124.5t-77.5 41.5
q-49 0 -85 -33t-36 -91q0 -88 40 -147t98 -59q26 0 44 9.5t27 21.5t14 37.5t6 43t1 52.5z" />
    <glyph glyph-name="colon" unicode=":" horiz-adv-x="140" 
d="M56 122q27 0 45.5 -23.5t18.5 -53.5q0 -22 -10.5 -35.5t-28.5 -13.5q-28 0 -44.5 24t-16.5 53q0 22 9.5 35.5t26.5 13.5zM56 507q27 0 45.5 -23.5t18.5 -53.5q0 -22 -10.5 -35.5t-28.5 -13.5q-28 0 -44.5 23t-16.5 54q0 22 9.5 35.5t26.5 13.5z" />
    <glyph glyph-name="semicolon" unicode=";" horiz-adv-x="167" 
d="M63 507q27 0 45.5 -23.5t18.5 -53.5q0 -22 -10.5 -35.5t-28.5 -13.5q-28 0 -44 23t-16 54q0 22 9 35.5t26 13.5zM22 -123l-2 32q37 12 54.5 28t17.5 39q0 8 -4 24q-60 0 -60 73q0 22 9 35.5t26 13.5q38 0 61 -44t23 -88q0 -47 -31 -78.5t-94 -34.5z" />
    <glyph glyph-name="less" unicode="&#x3c;" horiz-adv-x="607" 
d="M598 62l3 -64q-143 47 -208.5 70.5t-177 73t-215.5 110.5q0 40 8 76q118 35 299 115t285 113l15 -57q-55 -23 -230.5 -108.5t-276.5 -117.5q56 -43 249 -119.5t249 -91.5z" />
    <glyph glyph-name="equal" unicode="=" horiz-adv-x="609" 
d="M46 468l-10 45q94 7 266 11.5t227 7.5q25 -1 42.5 -18t17.5 -37q0 -13 -10 -23t-30 -12q-435 21 -503 26zM31 195l-11 45q100 8 509 27q25 -1 42.5 -18t17.5 -37q0 -13 -10 -23t-30 -12q-61 3 -240.5 7t-277.5 11z" />
    <glyph glyph-name="greater" unicode="&#x3e;" horiz-adv-x="607" 
d="M6 -2l3 64q56 15 249 91.5t249 119.5q-101 32 -276.5 117.5t-230.5 108.5l15 57q104 -33 285 -113t299 -115q8 -36 8 -76q-104 -61 -215.5 -110.5t-177 -73t-208.5 -70.5z" />
    <glyph glyph-name="question" unicode="?" horiz-adv-x="386" 
d="M61 516l-45 10q-16 41 -16 75q0 61 46.5 94t114.5 33q101 0 163 -58.5t62 -160.5q0 -43 -17 -75.5t-41.5 -53.5l-49.5 -42.5t-44 -55t-22 -77.5q-9 -31 -35 -31q-19 0 -35 17t-20 47q0 42 20 75t49 55.5l57.5 45t48.5 56.5t20 77q0 54 -48 86.5t-107 32.5
q-47 0 -79.5 -24t-32.5 -69q0 -27 11 -57zM160 121q27 0 45 -23.5t18 -53.5q0 -22 -10.5 -35.5t-28.5 -13.5q-28 0 -44 23t-16 54q0 22 9.5 35.5t26.5 13.5z" />
    <glyph glyph-name="at" unicode="@" horiz-adv-x="802" 
d="M314 500q56 0 83.5 -40.5t27.5 -101.5q0 -24 -3 -60l-3 -36q35 -43 76 -43q58 0 107 71t49 141q0 111 -70 189t-186 78q-120 0 -213 -104t-93 -261q0 -135 90.5 -212t226.5 -77q153 0 295 93q14 8 29 8q21 0 36.5 -13t15.5 -33q0 -39 -82 -75t-164 -54t-113 -18
q-171 0 -287 106.5t-116 293.5q0 179 107 303t262 124q56 0 110 -19t101 -56t76.5 -100.5t32.5 -144.5q2 -80 -17 -140t-51.5 -91.5t-67 -46.5t-69.5 -15q-61 0 -109 38q-31 -29 -71 -29q-56 0 -96.5 50.5t-40.5 108.5q0 63 37.5 114.5t89.5 51.5zM328 227q50 0 50 70
q0 52 -16.5 93.5t-53.5 41.5q-29 0 -49.5 -28t-20.5 -59q0 -43 28.5 -80.5t61.5 -37.5z" />
    <glyph glyph-name="A" unicode="A" horiz-adv-x="538" 
d="M233 725l76 -5q28 -124 115 -350.5t115 -338.5q0 -29 -10 -43.5t-25 -14.5q-13 0 -24.5 10.5t-15.5 29.5q-9 44 -58 176q-206 26 -259 32q-13 -36 -32 -117t-30 -112q-15 -18 -34 -18q-21 0 -36 18.5t-15 45.5q32 117 116 344t117 343zM268 624q-20 -121 -111 -355h112
q76 0 127 -5q-103 221 -128 360z" />
    <glyph glyph-name="B" unicode="B" horiz-adv-x="497" 
d="M41 26l5 704q11 37 86 37q69 0 127 -18.5t97.5 -62t39.5 -104.5q0 -48 -23.5 -93t-57.5 -58q64 -9 103 -77t39 -161q0 -63 -50 -109.5t-116.5 -67t-134.5 -20.5q-83 0 -115 30zM123 376q0 -69 -2 -277q30 -34 77 -34q62 0 120 51.5t58 110.5q0 73 -49 114t-126 41
q-51 0 -78 -6zM121 450l62 1q64 0 98.5 37.5t34.5 89.5q0 53 -35 91.5t-97 38.5q-28 0 -66 -12q2 -61 2.5 -151t0.5 -95z" />
    <glyph glyph-name="C" unicode="C" horiz-adv-x="540" 
d="M499 660l-40 -46q-78 58 -154 58q-50 0 -86 -24t-54.5 -58t-29 -86t-13 -90t-2.5 -89q0 -50 18.5 -113.5t62.5 -118.5t102 -55q63 0 193 66q13 -19 34 -63q-126 -87 -225 -87q-64 0 -117 39t-83.5 99t-47 125.5t-16.5 124.5q0 65 10 126.5t34 123.5t72.5 100t115.5 38
q58 0 120 -20t106 -50z" />
    <glyph glyph-name="D" unicode="D" horiz-adv-x="548" 
d="M41 6l3 722q222 -2 343 -113.5t121 -326.5q0 -69 -36 -126t-92.5 -91t-122 -52.5t-129.5 -18.5q-40 0 -87 6zM116 67h17q57 0 110 13.5t98 40.5t72 74.5t27 109.5q0 84 -50.5 170.5t-122 140t-132.5 53.5q-13 0 -25 -3q0 -60 6 -599z" />
    <glyph glyph-name="E" unicode="E" horiz-adv-x="468" 
d="M422 45l10 -45q-39 0 -141.5 -3.5t-148.5 -3.5q-74 0 -101 7q10 110 12 368t13 360q34 -3 180.5 -5t191.5 -9l11 -45q-45 -8 -180 -19t-142 -12q1 -23 4.5 -94t4.5 -117q34 -4 124 -11.5l114 -9.5l10 -46q-211 -19 -247 -20q0 -44 -1.5 -133.5t-1.5 -131.5
q229 -21 288 -30z" />
    <glyph glyph-name="F" unicode="F" horiz-adv-x="458" 
d="M132 -6l-91 6q10 110 12 368t13 360q34 -3 180.5 -5t191.5 -9l11 -45q-45 -8 -180 -19t-142 -12q1 -23 4.5 -94t4.5 -117q34 -4 124 -11.5l114 -9.5l10 -46q-211 -19 -247 -20v-17q0 -38 -2.5 -157.5t-2.5 -156.5v-15z" />
    <glyph glyph-name="G" unicode="G" horiz-adv-x="584" 
d="M368 230l-11 45q20 3 94 9.5t93 10.5v-318l-78 -16q-1 10 -1 47.5t-1 48.5q0 -2 -7 -11.5t-22 -23.5t-35 -27t-51 -22t-65 -9q-243 0 -243 378q0 65 10 126.5t34 123.5t72.5 100t115.5 38q58 0 120 -20t106 -50l-40 -46q-78 58 -154 58q-50 0 -86 -24t-54.5 -58t-29 -86
t-13 -90t-2.5 -89q0 -122 45 -199.5t117 -77.5q31 0 60.5 10t50.5 24t38 29t25.5 25t8.5 12v64z" />
    <glyph glyph-name="H" unicode="H" horiz-adv-x="480" 
d="M349 719l58 12q18 -141 22.5 -391.5t9.5 -331.5q-9 -31 -35 -31q-18 0 -34.5 15t-20.5 36q1 36 1 120v197q-22 -1 -61.5 -4.5t-72 -5.5t-61.5 -2q-26 0 -38 1q2 -61 7 -172.5l7 -153.5q-9 -31 -35 -31q-18 0 -34.5 15t-20.5 36q3 86 5.5 334t9.5 369l45 -10
q0 -3 0.5 -9.5t0.5 -10.5q13 -246 15 -308l72.5 6.5l85 8t72.5 6.5q1 0 1 10t0.5 81t0.5 214z" />
    <glyph glyph-name="I" unicode="I" horiz-adv-x="337" 
d="M24 -3l-2 49q92 15 114 16q1 34 1 102q0 90 -4 259.5t-5 224.5l-101 5l-7 58q41 -1 127 -1q88 0 131 -1l3 -50q-17 -7 -48 -8.5t-39 -2.5q3 -28 3.5 -141t0.5 -250t2 -195q16 -3 61 -7t56 -6l-2 -52q-30 1 -95 1q-34 0 -101 -0.5t-95 -0.5z" />
    <glyph glyph-name="J" unicode="J" horiz-adv-x="389" 
d="M0 98l51 26q58 -78 132 -78q56 0 73.5 40t17.5 131q0 66 -2 206t-2 220q0 54 1 82q7 -3 19 -3q4 0 11.5 0.5t12.5 0.5q17 0 30 -6q-2 -68 -2 -104q0 -57 3 -183.5t3 -196.5q0 -45 -0.5 -68t-2.5 -54.5t-6.5 -46t-13 -34.5t-20.5 -27.5t-30.5 -16.5t-42.5 -11.5t-56 -2.5
q-123 0 -176 126z" />
    <glyph glyph-name="K" unicode="K" horiz-adv-x="459" 
d="M460 -7h-88q-33 31 -70 71t-60.5 68l-65 79.5l-58.5 72.5l13 -270q-9 -30 -35 -30q-18 0 -34.5 14.5t-20.5 35.5q3 80 5 332t9 372l45 -10q3 -50 7 -173.5t6 -164.5l63.5 77.5l64 77l51 59.5t61.5 68t60 59l30 -49q-36 -60 -279 -340q35 -37 144.5 -172t151.5 -177z" />
    <glyph glyph-name="L" unicode="L" horiz-adv-x="486" 
d="M48 717l60 -6q15 -153 29 -630q67 4 170 4t165 3q6 -17 8.5 -48t5.5 -46q-131 8 -334 8h-111q5 148 5.5 396t1.5 319z" />
    <glyph glyph-name="M" unicode="M" horiz-adv-x="736" 
d="M736 0l-76 -7q-55 345 -119 591q-33 -78 -72.5 -219.5t-54.5 -183.5q-2 0 -6.5 -0.5t-7.5 -0.5q-14 0 -46 3t-41 3q-1 29 -51 193.5t-60 210.5q-18 -162 -140 -590l-62 6q14 109 69 343t65 362q18 2 29 2q10 0 74 -8q14 -2 40.5 -90.5t53.5 -194.5t34 -125
q28 69 67.5 224t55.5 197q16 -1 101 -9q26 -101 50.5 -218l53 -266z" />
    <glyph glyph-name="N" unicode="N" horiz-adv-x="562" 
d="M41 28l13 692h54l327 -621v79q0 302 11 543l57 -11q11 -217 18 -715q-21 -9 -44 -9q-34 0 -71 20q-61 94 -151.5 275t-128.5 248q1 -68 1.5 -248t3.5 -273q-9 -31 -35 -31q-18 0 -34.5 15t-20.5 36z" />
    <glyph glyph-name="O" unicode="O" horiz-adv-x="536" 
d="M42 335v51.5t1.5 53.5t4 57t7.5 54.5t13 54l18.5 46.5t26.5 42t35 30.5t45 21.5t57 7q62 0 108 -24.5t72 -61.5t41.5 -91t20 -103t4.5 -108q0 -40 -1.5 -72t-6 -72.5t-13 -71.5t-23.5 -62.5t-35.5 -52t-51.5 -33.5t-69 -13q-62 0 -106.5 15t-73 42t-45 71t-23 96
t-6.5 123zM424 327q0 49 -7.5 102t-25 114t-55.5 99.5t-91 38.5q-40 0 -70.5 -53.5t-43.5 -120t-13 -125.5q0 -41 0.5 -62.5t3.5 -61t8.5 -62.5t17.5 -53t28.5 -46.5t43 -29t59.5 -13.5q73 4 109 82t36 191z" />
    <glyph glyph-name="P" unicode="P" horiz-adv-x="525" 
d="M57 718l45 12q0 -32 1 -36q57 38 160 38q111 0 166 -69.5t55 -194.5q0 -111 -54 -184t-163 -73q-18 0 -144 12q2 -73 8 -227q-9 -31 -35 -31q-18 0 -34.5 14.5t-20.5 35.5q3 84 6.5 327t9.5 376zM112 627l8 -312q55 -30 127 -30q69 0 117 52t48 127q0 81 -50 146t-125 65
q-61 0 -125 -48z" />
    <glyph glyph-name="Q" unicode="Q" horiz-adv-x="540" 
d="M427 -115l10 -45q-10 -1 -28 -1q-70 0 -109 39.5t-55 114.5q-204 35 -204 299q0 210 45 337q45 124 171 124q243 -37 243 -383q0 -41 -0.5 -66t-4 -70t-9.5 -74t-18.5 -64.5t-30 -56.5t-45 -36t-62.5 -15q-1 -5 -1 -14q0 -37 34 -63t64 -26zM424 327q0 39 -3 78t-14 89
t-29 87.5t-50.5 63.5t-75.5 26q-30 0 -53 -13t-36.5 -39t-21.5 -50.5t-11.5 -64.5t-4 -62t-0.5 -60q0 -48 1.5 -82.5t9.5 -83.5t22 -80.5t42 -55.5t67 -26q58 0 94.5 41t49.5 99t13 133z" />
    <glyph glyph-name="R" unicode="R" horiz-adv-x="531" 
d="M505 -16l16 -41q-45 1 -94 29t-91.5 70.5t-76 86t-57.5 85.5l-79 9q2 -73 8 -227q-9 -31 -35 -31q-18 0 -34.5 14.5t-20.5 35.5q3 84 6.5 327t9.5 376l45 12q0 -32 1 -36q57 38 160 38q111 0 166 -69.5t55 -194.5q0 -46 -11 -88.5t-32.5 -79.5t-59.5 -61t-87 -28
q35 -73 94 -142t117 -85zM112 627l8 -312q55 -30 127 -30q69 0 117 52t48 127q0 81 -50 146t-125 65q-61 0 -125 -48z" />
    <glyph glyph-name="S" unicode="S" 
d="M28 57l14 56q87 -47 171 -47q60 0 102.5 24.5t42.5 79.5q0 49 -36 89.5t-87 71.5l-102 63.5t-87 80t-36 105.5q0 71 51 129.5t123 58.5q55 0 122.5 -22t113.5 -44l-12 -40q-114 39 -192 39q-48 0 -82 -31t-34 -80q0 -37 19 -67t49.5 -52t68 -43t74.5 -45t67.5 -52
t49.5 -70.5t19 -95.5q0 -75 -48 -122.5t-125 -47.5q-66 0 -140.5 18.5t-105.5 43.5z" />
    <glyph glyph-name="T" unicode="T" horiz-adv-x="441" 
d="M10 671l-10 45l382 22q25 -1 42 -18t17 -37q0 -13 -10 -23t-30 -12l-168 9q25 -353 37 -642q-9 -30 -34 -30q-18 0 -35 14.5t-21 35.5q2 54 2 164q0 41 -0.5 123t-0.5 123q0 119 4 215q-113 8 -175 11z" />
    <glyph glyph-name="U" unicode="U" horiz-adv-x="537" 
d="M425 742l59 -5q13 -184 13 -311q0 -92 -5 -210q-2 -50 -8 -84.5t-21 -67.5t-40.5 -52.5t-66.5 -31t-99 -11.5q-42 0 -74 7.5t-53.5 19.5t-36.5 31.5t-23.5 40.5t-13 50t-6.5 55t-4 61v4q-5 122 -5 207q0 72 6 290l55 -12q2 -92 11 -262.5t12 -242.5q1 -34 3 -54t9.5 -46
t20.5 -40t37 -24t59 -10t60.5 4.5t42 16.5t27 24t16.5 35.5t8.5 41t5.5 51.5q7 86 8 278t3 247z" />
    <glyph glyph-name="V" unicode="V" horiz-adv-x="429" 
d="M369 720l60 -3q-1 -2 -78 -323t-105 -393q-10 -2 -20 -2q-28 0 -63 7q-15 45 -34.5 123t-40.5 173l-36.5 168.5l-32.5 157.5t-19 92h57q40 -184 144 -590q154 562 168 590z" />
    <glyph glyph-name="W" unicode="W" horiz-adv-x="683" 
d="M623 720l60 -3q-1 -2 -78 -323t-105 -393q-10 -2 -20 -2q-28 0 -63 7q-27 80 -82 324q-62 -255 -89 -329q-10 -2 -20 -2q-28 0 -63 7q-15 45 -34.5 123t-40.5 173l-36.5 168.5l-32.5 157.5t-19 92h57q40 -184 144 -590l51 188l48 177q-14 64 -46 225h57q40 -184 144 -590
q154 562 168 590z" />
    <glyph glyph-name="X" unicode="X" horiz-adv-x="558" 
d="M43 -9l-43 22q26 61 59.5 119.5t92 148l72.5 111.5q-25 39 -102.5 150.5t-115.5 174.5l42 19q85 -99 213 -285q5 19 87.5 133t94.5 135q15 25 36 25q20 0 36 -17.5t17 -40.5q-6 -7 -103.5 -143t-121.5 -164q34 -53 130 -183.5t121 -173.5q0 -19 -9.5 -29t-24.5 -10
q-34 0 -52 33l-205 306q-31 -50 -109 -160t-115 -171z" />
    <glyph glyph-name="Y" unicode="Y" horiz-adv-x="422" 
d="M388 723l55 -17q-9 -17 -44.5 -95.5t-77.5 -161.5t-82 -146q4 -49 5 -152t4 -148q-9 -2 -46 -2q-35 0 -42 2q3 43 4.5 147.5t5.5 152.5q-50 83 -111.5 232t-78.5 184l67 5l158 -340q18 32 82.5 159t100.5 180z" />
    <glyph glyph-name="Z" unicode="Z" horiz-adv-x="445" 
d="M425 60l2 -61q-58 -2 -90 -2q-44 0 -130.5 2t-126.5 2q-30 0 -76 -2l6 54q3 28 68.5 139.5l160.5 262.5t118 191q-36 2 -110.5 4t-136 5t-110.5 7v54h30q6 0 415 7v-79l-313 -571q44 -3 147 -7t146 -6z" />
    <glyph glyph-name="bracketleft" unicode="[" horiz-adv-x="278" 
d="M65 -90l-24 905q20 -3 96 -4t100 -8l10 -45q-84 -21 -148 -21q2 -48 15.5 -345.5t16.5 -417.5q12 -2 67 -4.5t74 -7.5l7 -46q-14 1 -41 1q-31 0 -88.5 -3t-84.5 -4z" />
    <glyph glyph-name="backslash" unicode="\" horiz-adv-x="513" 
d="M0 824l81 -8l141 -315.5l138.5 -295t152.5 -294.5q-18 -9 -48 -9q-35 0 -40 9q-73 109 -211.5 405.5t-213.5 507.5z" />
    <glyph glyph-name="bracketright" unicode="]" horiz-adv-x="278" 
d="M238 815l-24 -905q-27 1 -84.5 4t-88.5 3q-27 0 -41 -1l6 46q19 5 74 7.5t67 4.5q3 120 16.5 417.5t15.5 345.5q-63 0 -147 21l10 45q24 7 100 8t96 4z" />
    <glyph glyph-name="asciicircum" unicode="^" horiz-adv-x="452" 
d="M453 339l-66 1q-23 26 -84 140.5t-80 141.5q-20 -42 -83.5 -139.5t-96.5 -126.5l-43 23q28 61 86 164.5t99 167.5q4 7 20 13.5t32 6.5q28 0 36 -25q17 -52 46.5 -113t73 -140.5t60.5 -113.5z" />
    <glyph glyph-name="underscore" unicode="_" horiz-adv-x="566" 
d="M10 15l-10 45q169 14 507 32q25 -1 42 -18t17 -37q0 -13 -10 -23t-30 -12q-69 3 -244.5 5t-271.5 8z" />
    <glyph glyph-name="grave" unicode="`" horiz-adv-x="500" 
d="M321 604l-15 -5q-13 -5 -24 -5.5t-19 4t-14.5 10t-12 15.5t-9.5 18l-10 20l-10 20l-46 85l80 -9z" />
    <glyph glyph-name="a" unicode="a" horiz-adv-x="411" 
d="M77 432l-20 51q26 26 66 41.5t79 15.5q169 0 169 -292q0 -40 -4.5 -118t-4.5 -117q-8 -31 -31 -31q-18 0 -33 18t-15 40q0 7 1 10q-62 -60 -132 -60q-53 0 -92.5 38.5t-39.5 93.5q0 93 72.5 168t164.5 75q4 0 8 -0.5t9.5 -1.5t8.5 -1q-8 117 -93 117q-50 0 -113 -47z
M286 119q2 70 2 106q0 30 -2 84h-8q-71 -1 -129.5 -53t-58.5 -126q0 -32 19.5 -51t47.5 -19q44 0 129 59z" />
    <glyph glyph-name="b" unicode="b" horiz-adv-x="454" 
d="M109 -19l-56 -11l-12 790q28 14 76 23q-1 -23 -1 -72q0 -108 8 -214q48 27 102 27q56 0 95 -26.5t58 -72.5t27 -93t8 -102q0 -60 -18.5 -115.5t-64 -97t-110.5 -41.5q-56 0 -111 35q-1 -10 -1 -30zM121 399l-3 -322q6 -18 37.5 -28.5t68.5 -10.5q35 0 58.5 13.5t35.5 39
t16.5 53.5t4.5 64q0 37 -4 72.5t-16 78t-39 68.5t-67 26q-29 0 -54.5 -14.5t-37.5 -39.5z" />
    <glyph glyph-name="c" unicode="c" horiz-adv-x="400" 
d="M378 496l-5 -43q-42 6 -72 6q-69 0 -114 -41.5t-61.5 -98t-16.5 -125.5q0 -32 4 -57t14.5 -49t33 -37.5t55.5 -13.5q44 0 112 17q21 8 33 8q24 0 29 -56q-88 -28 -163 -28q-109 0 -147.5 53.5t-38.5 173.5q0 70 9.5 122.5t33.5 98t69.5 69.5t111.5 24q74 0 113 -23z" />
    <glyph glyph-name="d" unicode="d" horiz-adv-x="454" 
d="M401 -26l-55 11q0 20 -1 30q-53 -34 -112 -34q-91 0 -141.5 78t-50.5 177q0 51 7.5 96t26 92.5t58 75.5t95.5 28q55 0 103 -27q8 106 8 214q0 49 -1 72q48 -9 76 -23zM337 81l-3 322q-12 25 -37.5 39.5t-54.5 14.5q-39 0 -66.5 -25t-39 -66.5t-16 -77.5t-4.5 -76
q0 -170 114 -170q38 0 69.5 10.5t37.5 28.5z" />
    <glyph glyph-name="e" unicode="e" horiz-adv-x="453" 
d="M444 97l10 -44q-44 -16 -130.5 -35.5t-128.5 -19.5q-43 0 -75 28.5t-48 73t-23.5 88t-7.5 85.5q0 250 226 250q54 0 95 -34.5t41 -89.5q0 -30 -16.5 -53t-40 -36.5t-60 -24.5t-64.5 -16t-67 -11t-54 -9q1 -29 3.5 -51t10 -47.5t20 -42t34.5 -27.5t52 -11q36 0 88 6.5
t92.5 13.5t42.5 7zM105 311q136 39 223 82q-7 33 -19 48t-36 15q-61 0 -110.5 -42t-57.5 -103z" />
    <glyph glyph-name="f" unicode="f" horiz-adv-x="334" 
d="M299 437l9 -46q-21 -3 -70 -7t-73 -8q0 -257 6 -373q-12 -39 -40 -39q-13 0 -24.5 11t-15.5 28q0 30 3.5 163t3.5 206l-76 3q-2 20 -2 67q10 -2 38 -5t38 -4q3 32 3 91q0 114 19 156t91 42q77 0 126 -29l-6 -36q-13 0 -40.5 2.5t-41.5 2.5q-41 0 -62 -18t-21 -69
q0 -16 0.5 -34.5t0.5 -23.5q0 -37 -1 -81q16 0 44.5 -1t41.5 -1q25 0 49 3z" />
    <glyph glyph-name="g" unicode="g" horiz-adv-x="441" 
d="M346 516l45 10q0 -30 1 -47q6 -219 6 -285q0 -23 1 -72t1 -74q0 -55 -3.5 -95t-15.5 -83.5t-32.5 -71t-58 -45.5t-88.5 -18q-44 0 -155 13q-1 11 -3.5 24t-2.5 20q0 15 3 24l62.5 -8t80.5 -7q69 0 106 42t38 157q-49 -28 -103 -28q-45 0 -79 18.5t-54 47t-32.5 69
t-17 78.5t-4.5 81q0 108 47.5 181t144.5 73q57 0 112 -35q1 10 1 31zM334 97l3 323q-6 18 -37.5 28.5t-69.5 10.5q-54 0 -84 -49.5t-30 -120.5q0 -37 4 -72.5t16 -78t39 -68.5t67 -26q30 0 55 14.5t37 38.5z" />
    <glyph glyph-name="h" unicode="h" horiz-adv-x="444" 
d="M46 720l52 -12q3 -41 4.5 -131t3.5 -124q54 57 130 57q68 0 117.5 -48t49.5 -128v-329q-13 -6 -33 -6q-22 0 -40 4q0 8 0.5 24.5t0.5 24.5q0 39 -3 134.5t-3 159.5q-15 92 -93 92q-34 0 -67 -18.5t-48 -43.5q3 -63 4 -190t3 -183q-24 -4 -41 -4q-25 0 -42 6q2 49 2 155
q0 47 -1 172.5t-0.5 216t4.5 171.5z" />
    <glyph glyph-name="i" unicode="i" horiz-adv-x="181" 
d="M63 514l46 -10q8 -82 14 -257.5t8 -217.5q-9 -31 -35 -31q-18 0 -34.5 14.5t-20.5 35.5q2 41 8 213.5t14 252.5zM77 693q27 0 45 -23.5t18 -53.5q0 -22 -10.5 -35.5t-28.5 -13.5q-28 0 -44 23t-16 54q0 22 9.5 35.5t26.5 13.5z" />
    <glyph glyph-name="j" unicode="j" horiz-adv-x="166" 
d="M-82 -187v36q36 8 62 30.5t39.5 49t21 67.5t9 71.5t1.5 75.5q0 41 -1 145.5t-2 190.5q4 44 33 44q15 0 28.5 -15t14.5 -38q0 -27 0.5 -84.5t0.5 -88.5q0 -3 0.5 -22t0.5 -35q0 -140 -10 -228t-32.5 -132.5t-50.5 -59.5t-72 -15q-19 0 -43 8zM61 695q27 0 45.5 -23.5
t18.5 -53.5q0 -22 -10.5 -35.5t-28.5 -13.5q-28 0 -44 23t-16 54q0 22 9 35.5t26 13.5z" />
    <glyph glyph-name="k" unicode="k" horiz-adv-x="405" 
d="M406 0l-92 2q-37 37 -101.5 119.5t-81.5 101.5v-206q-9 -30 -35 -30q-18 0 -34.5 14.5t-20.5 35.5q3 103 3 342t4 343l61 -13q1 -40 3.5 -164t4.5 -185l243 178l17 -45q-95 -69 -223 -195q27 -29 119.5 -141.5t132.5 -156.5z" />
    <glyph glyph-name="l" unicode="l" horiz-adv-x="172" 
d="M63 686l46 -10l22 -647q-9 -31 -35 -31q-18 0 -34.5 14.5t-20.5 35.5z" />
    <glyph glyph-name="m" unicode="m" horiz-adv-x="580" 
d="M314 396q4 -56 6 -132.5t3.5 -154.5t2.5 -106q-22 -6 -41 -6q-15 0 -28 5q-3 39 -4 89t-1 88.5t-1.5 80.5t-5.5 72t-12 55.5t-22.5 39.5t-35.5 15q-21 0 -34 -9t-28 -33v-396q-15 -8 -36 -8q-16 0 -36 5q3 63 4 248t8 274l45 -10l3 -51q30 47 76 47q68 0 115 -60
q29 60 94 60q26 0 45 -6q109 -31 109 -279q0 -36 -2.5 -96.5t-2.5 -81.5q0 -28 3 -46q-52 -14 -63 -14q-10 0 -14 2q-4 13 -4 48q0 22 3 90.5t3 107.5q0 208 -82 210q-19 -1 -33 -11.5t-34 -36.5z" />
    <glyph glyph-name="n" unicode="n" horiz-adv-x="423" 
d="M109 400l4 -396q-15 -8 -36 -8q-16 0 -36 5q3 63 4 248t8 274l45 -10l3 -56q53 56 122 56q35 0 56 -5t40.5 -24.5t29.5 -51.5t18 -91.5t11.5 -139t4.5 -200.5q-6 -2 -23 -2q-36 0 -56 9q-4 16 -4 53q0 19 1.5 71.5t1.5 81.5q0 48 -3.5 84t-13 71t-29 54t-48.5 19
q-33 0 -51.5 -5t-26 -12t-22.5 -25z" />
    <glyph glyph-name="o" unicode="o" 
d="M41 213q0 40 8.5 89t25.5 103t51 90t79 36q96 0 154 -86.5t58 -192.5q0 -45 -9.5 -89.5t-29.5 -87.5t-57.5 -71.5t-87.5 -32.5q-92 12 -142 78.5t-50 163.5zM211 479q-35 -4 -59 -64t-31 -116.5t-7 -99.5q0 -56 34.5 -103.5t77.5 -47.5q31 0 56 24t39.5 59.5t22 71.5
t7.5 64q0 82 -37 143t-103 69z" />
    <glyph glyph-name="p" unicode="p" horiz-adv-x="454" 
d="M53 526l56 -10q0 -21 1 -31q55 35 111 35q91 0 142 -78t51 -177q0 -50 -7.5 -95.5t-26.5 -93t-58.5 -76t-95.5 -28.5q-53 0 -102 28q4 -175 7 -260q-9 -31 -35 -31q-18 0 -34.5 14.5t-20.5 35.5zM118 420l3 -323q12 -24 37 -38.5t55 -14.5q39 0 66.5 25t39 66.5t16 77.5
t4.5 76q0 170 -115 170q-37 0 -68.5 -10.5t-37.5 -28.5z" />
    <glyph glyph-name="q" unicode="q" horiz-adv-x="454" 
d="M346 516l55 10l13 -789q-32 -16 -76 -24q1 23 1 73q0 108 -8 214q-49 -28 -103 -28q-45 0 -79 18.5t-54 47t-32.5 69t-17 78.5t-4.5 81q0 60 18 115.5t63.5 97t110.5 41.5q57 0 112 -35q1 10 1 31zM334 97l3 323q-6 18 -37.5 28.5t-69.5 10.5q-35 0 -58.5 -13.5t-35 -39
t-16 -53t-4.5 -64.5t4 -72.5t16 -78t39 -68.5t67 -26q30 0 55 14.5t37 38.5z" />
    <glyph glyph-name="r" unicode="r" horiz-adv-x="372" 
d="M371 381l-44 3q-21 56 -71 56q-22 0 -46.5 -10t-40.5 -20.5t-42 -30.5q0 -14 -0.5 -91t1 -171t3.5 -101q-9 -30 -35 -30q-18 0 -34.5 14.5t-20.5 35.5q19 321 34 485l45 -10l3 -67q70 58 120 58q55 0 92.5 -25t37.5 -73q0 -15 -2 -23z" />
    <glyph glyph-name="s" unicode="s" horiz-adv-x="388" 
d="M349 482l-10 -40q-97 40 -151 40q-48 0 -67.5 -14.5t-19.5 -61.5q0 -38 27.5 -63t66.5 -39.5t78.5 -31t67 -48.5t27.5 -79q0 -64 -47 -112t-122 -49q-55 0 -103 23t-76 58l29 30q12 -5 35.5 -16t33.5 -14.5t29.5 -7.5t41.5 -4q47 0 77 21t30 59q0 25 -14 42.5t-37 28.5
t-50.5 21t-55 22.5t-50.5 30t-37 47.5t-14 71q0 60 32.5 100.5t91.5 40.5q23 0 52 -7t46 -13t50.5 -19.5z" />
    <glyph glyph-name="t" unicode="t" horiz-adv-x="372" 
d="M314 484l11 -45q-27 -2 -83 -10.5t-84 -10.5q5 -35 6 -92t2.5 -98.5t9 -83t31 -63.5t63.5 -22q30 0 75 14l28 -54q-79 -28 -160 -28q-30 0 -52 18t-34 45t-19.5 68.5t-9.5 78.5t-2 85q0 26 0.5 72t0.5 63q-10 -1 -47 -1.5t-43 -0.5q-7 67 -7 69q7 -2 23 -2q9 0 29 1.5
t30 1.5q4 0 10.5 -0.5t8.5 -0.5q4 110 9 179l45 -11q1 -24 1.5 -51.5t1 -61t0.5 -51.5q26 -2 78 -4t78 -4z" />
    <glyph glyph-name="u" unicode="u" horiz-adv-x="450" 
d="M338 502l48 -9v-10q0 -68 8.5 -230t15.5 -250q-20 -8 -38 -8q-16 0 -36 5l-8 26q-64 -36 -122 -36q-43 0 -74.5 20t-48.5 49.5t-27 73t-12.5 79t-2.5 79.5q0 128 16 235l45 -10q7 -33 7 -72q0 -22 -2.5 -76t-2.5 -82q0 -49 4.5 -84.5t17 -69t38.5 -51.5t65 -18
q44 0 95 20q2 37 4 189.5t10 229.5z" />
    <glyph glyph-name="v" unicode="v" horiz-adv-x="379" 
d="M313 514l67 -9l-60 -240.5t-64 -262.5q-39 -7 -68 -7q-24 0 -45 4l-47.5 164.5l-55 195.5t-40.5 159l66 -5l130 -416q16 48 34 108t29 102.5l29 111z" />
    <glyph glyph-name="w" unicode="w" horiz-adv-x="596" 
d="M530 518l67 -9l-60 -240.5t-64 -262.5q-39 -7 -67 -7q-25 0 -46 4l-56 196l-48 -197q-39 -7 -68 -7q-24 0 -45 4l-47.5 164.5l-55 195.5t-40.5 159l66 -5l130 -416q33 96 69 237q-31 115 -48 188l66 -5l130 -416q16 48 34 108t29 102.5l29 111z" />
    <glyph glyph-name="x" unicode="x" horiz-adv-x="364" 
d="M43 -25l-43 23q26 65 136 252q-58 79 -132 263h44q37 -78 125 -203q15 21 39.5 65t48 76t53.5 56q36 -20 36 -47q0 -15 -7 -29q-27 -33 -69 -104t-52 -86q106 -148 143 -223q0 -38 -34 -38t-52 33q-18 60 -95 170q-17 -28 -69.5 -101.5t-71.5 -106.5z" />
    <glyph glyph-name="y" unicode="y" horiz-adv-x="437" 
d="M113 -296l-62 35q41 71 145 270q-81 72 -124 218t-52 292l58 -3q5 -24 21.5 -109.5t26.5 -126.5t35.5 -102.5t58.5 -103.5q139 267 139 438v11q52 -8 78 -19q-16 -105 -50 -214t-85 -219.5t-90.5 -185.5z" />
    <glyph glyph-name="z" unicode="z" horiz-adv-x="420" 
d="M27 476l-14 60q13 0 101 2.5t138 2.5q98 0 165 -9q-1 -5 -1 -14q0 -3 0.5 -13.5t0.5 -20.5q-43 -77 -154.5 -212.5t-154.5 -200.5q33 0 136 -1t172 -1q1 -9 2 -21.5t2 -21.5t1 -17q0 -11 -1 -18q-60 2 -417 2q-3 18 -3 29q0 10 3 37q15 30 152.5 200t154.5 220
q-34 2 -57 2q-31 0 -107 -2.5t-119 -2.5z" />
    <glyph glyph-name="braceleft" unicode="{" horiz-adv-x="265" 
d="M22 338l-2 52q38 26 58.5 64.5t24.5 77t10 81t14 77.5t37 65.5t79 45.5l15 -33q-45 -10 -67.5 -50.5t-27 -93t-8 -105.5t-21 -96.5t-54.5 -57.5q40 -38 59.5 -95.5t23.5 -112t9.5 -104.5t27 -84t65.5 -40l-15 -32q-58 10 -87.5 48.5t-37 91t-12 108t-25.5 109.5t-66 84z
" />
    <glyph glyph-name="bar" unicode="|" horiz-adv-x="172" 
d="M63 788l46 -10q4 -77 9.5 -424t12.5 -422q-9 -30 -35 -30q-18 0 -34.5 14.5t-20.5 35.5q0 3 0.5 10t1 27t1.5 50q19 532 19 709v40z" />
    <glyph glyph-name="braceright" unicode="}" horiz-adv-x="265" 
d="M245 390l-1 -52q-45 -30 -66 -84t-26 -109.5t-12.5 -108t-37 -91t-87.5 -48.5l-15 32q44 6 65.5 40t27 84t9.5 104.5t23.5 112t59.5 95.5q-37 14 -54.5 57.5t-21 96.5t-8 105.5t-27 93t-67.5 50.5l16 33q59 -18 88 -56.5t35.5 -85t10 -94.5t23.5 -96.5t65 -78.5z" />
    <glyph glyph-name="asciitilde" unicode="~" horiz-adv-x="533" 
d="M365 362q31 0 49.5 11t47.5 47l51 -26q-14 -34 -32.5 -56t-41 -32t-43 -13.5t-49.5 -3.5q-40 0 -94.5 33.5t-83.5 33.5q-31 0 -52.5 -11.5t-44.5 -45.5l-52 26q28 66 63 85.5t93 19.5q41 0 99 -34t90 -34z" />
    <glyph glyph-name="nonbreakingspace" unicode="&#xa0;" horiz-adv-x="286" 
 />
    <glyph glyph-name="exclamdown" unicode="&#xa1;" horiz-adv-x="186" 
d="M75 370l45 -11q6 -78 10 -163.5t8.5 -196t6.5 -163.5q-4 -40 -34 -40q-20 0 -37.5 17.5t-18.5 42.5q2 49 7 232t13 282zM104 426q-27 0 -45 23.5t-18 53.5q0 22 10.5 35.5t28.5 13.5q28 0 44 -23t16 -54q0 -22 -9.5 -35.5t-26.5 -13.5z" />
    <glyph glyph-name="sterling" unicode="&#xa3;" horiz-adv-x="548" 
d="M418 -4q-24 0 -75 10t-79 10q-37 0 -103.5 -13t-105.5 -13q-7 0 -35 7v37q55 2 86 40.5t37 90.5q6 54 4 186l-95 3q-1 10 -1 68q10 -2 48 -5t48 -4q4 43 4 111q0 198 160 198q35 0 80.5 -9.5t66.5 -21.5l-6 -36q-12 0 -55.5 3.5t-57.5 3.5q-124 0 -124 -117v-129
q16 0 49.5 -2.5t46.5 -2.5q25 0 49 3l10 -46q-21 -3 -76 -6t-78 -7q3 -103 2 -140q-3 -83 -28 -143q51 10 84 6t76 -13.5t58 -9.5q60 0 69 85l37 2q17 -41 13 -77q-4 -30 -35 -49.5t-74 -19.5z" />
    <glyph glyph-name="currency" unicode="&#xa4;" horiz-adv-x="573" 
d="M31 282l-11 72h75q4 242 10 364l46 12q0 -32 1 -36q57 38 159 38q106 0 163.5 -58.5t57.5 -164.5q0 -237 -217 -237q-81 0 -144 6q0 -7 0.5 -25t0.5 -27q20 0 76.5 -1.5t96.5 -1.5q65 0 99 2q20 -2 30 -12t10 -23q0 -19 -16.5 -31t-42.5 -14q-93 5 -251 12q1 -85 5 -161
q-9 -31 -35 -31q-18 0 -34 14.5t-18 35.5v146l-72 6l3 62l70 -4q1 18 1 57h-63zM160 627l8 -273q35 -8 127 -8q76 0 120.5 42t44.5 117q0 83 -47 126.5t-128 43.5q-61 0 -125 -48z" />
    <glyph glyph-name="brokenbar" unicode="&#xa6;" horiz-adv-x="172" 
d="M44 49l10 270l65 -6q4 -281 12 -370q-9 -31 -35 -31q-18 0 -34.5 14.5t-20.5 35.5q0 3 0.5 10t1 27t1.5 50zM63 799l46 -11q4 -89 8 -396l-61 -6q7 229 7 372v41z" />
    <glyph glyph-name="section" unicode="&#xa7;" horiz-adv-x="406" 
d="M368 677l-11 -40q-97 40 -150 40q-48 0 -67.5 -15t-19.5 -62q0 -38 27.5 -63t66.5 -39.5l78 -30.5t66.5 -48t27.5 -79q0 -86 -91 -121q73 -41 73 -115q0 -64 -47 -112t-122 -49q-55 0 -103 23t-76 58l29 30q12 -5 35.5 -16t33.5 -14.5t29.5 -7.5t41.5 -4q47 0 77 21
t30 59q0 25 -14 42.5t-37 28.5t-50.5 21t-55 22.5t-50.5 30t-37 47.5t-14 71q0 88 61 124q-43 41 -43 112q0 60 32.5 100t91.5 40q19 0 39 -3.5t42.5 -10.5t37 -12.5l38.5 -15t31 -12.5zM101 365q0 -24 9 -42t32 -32.5t37.5 -21t49.5 -20.5q39 5 62 25t23 54q0 26 -17 45
t-38 28t-57.5 22.5t-56.5 23.5q-44 -19 -44 -82z" />
    <glyph glyph-name="dieresis" unicode="&#xa8;" horiz-adv-x="500" 
d="M128 717q27 0 45 -23.5t18 -53.5q0 -22 -10 -35.5t-28 -13.5q-28 0 -44.5 24t-16.5 53q0 22 9.5 35.5t26.5 13.5zM334 717q27 0 45 -23.5t18 -53.5q0 -22 -10.5 -35.5t-28.5 -13.5q-28 0 -44 24t-16 53q0 22 9.5 35.5t26.5 13.5z" />
    <glyph glyph-name="copyright" unicode="&#xa9;" horiz-adv-x="729" 
d="M709 367q-1 -190 -88.5 -297.5t-228.5 -107.5q-169 0 -270.5 100.5t-101.5 289.5q0 178 97 287.5t252 109.5q140 0 237.5 -107.5t102.5 -274.5zM89 354q0 -145 77 -232.5t219 -87.5q124 0 192.5 86.5t68.5 218.5q0 141 -77 245t-194 104q-121 0 -203.5 -89t-82.5 -245z
M482 540l-22 -37q-44 33 -85 33q-93 0 -93 -185q0 -29 7.5 -61t30 -60.5t54.5 -28.5q30 0 106 37q6 -7 12 -24t8 -21q-71 -50 -125 -50q-72 0 -110 62.5t-38 154.5q0 36 6 71t19 70t40 56.5t64 21.5q66 0 126 -39z" />
    <glyph glyph-name="guillemotleft" unicode="&#xab;" horiz-adv-x="543" 
d="M433 37l-14 -31q-178 45 -416 204q-3 6 -3 14q0 11 4 15q71 48 208.5 132.5t178.5 106.5l27 -17q-196 -151 -334 -228q117 -90 349 -196zM544 122l-28 -22q-6 3 -83.5 33t-127.5 53.5t-78 45.5l136 74t83 48.5t61 42.5l22 -20q-122 -101 -207 -141q24 -20 104.5 -55
t117.5 -59z" />
    <glyph glyph-name="logicalnot" unicode="&#xac;" horiz-adv-x="433" 
d="M31 289l-11 54l333 23q27 -2 43.5 -16t16.5 -40q0 -9 -0.5 -20.5l-1 -23t-1.5 -23t-2.5 -22.5t-2.5 -21t-2 -18.5t-1 -14.5q-2 -6 -2 -9v-3l-55 10l-6 124h-308z" />
    <glyph glyph-name="uni00AD" unicode="&#xad;" horiz-adv-x="351" 
d="M31 298l-11 45l251 23q25 -1 42.5 -18.5t17.5 -37.5q0 -13 -10 -23t-30 -12z" />
    <glyph glyph-name="registered" unicode="&#xae;" horiz-adv-x="729" 
d="M709 367q-1 -190 -88.5 -297.5t-228.5 -107.5q-169 0 -270.5 100.5t-101.5 289.5q0 178 97 287.5t252 109.5q140 0 237.5 -107.5t102.5 -274.5zM89 354q0 -145 77 -232.5t219 -87.5q114 0 184 78q-43 1 -79 11.5t-57.5 23.5t-44 38.5t-32 41l-27.5 46.5l-51 7
q1 -53 5 -149q-6 -20 -23 -20q-11 0 -22 9.5t-14 22.5q1 44 3.5 207t6.5 252l40 8q0 -21 1 -23q37 24 94 24q72 0 108 -45.5t36 -126.5q0 -62 -33 -111t-89 -53q60 -122 209 -122q46 76 46 186q0 141 -77 245t-194 104q-121 0 -203.5 -89t-82.5 -245zM281 532l-6 -191
q22 -12 83 -12q45 0 71.5 28.5t26.5 78.5q0 56 -23 91.5t-72 35.5q-38 0 -80 -31z" />
    <glyph glyph-name="degree" unicode="&#xb0;" horiz-adv-x="321" 
d="M0 624q0 64 51 118.5t116 54.5q59 0 107 -49.5t48 -111.5q0 -68 -44 -120t-111 -52q-65 0 -116 45.5t-51 114.5zM166 731q-39 0 -72 -31.5t-33 -71.5t31.5 -68.5t73.5 -28.5q40 0 68.5 30.5t28.5 73.5q0 36 -29.5 66t-67.5 30z" />
    <glyph glyph-name="plusminus" unicode="&#xb1;" horiz-adv-x="495" 
d="M471 139l-10 -45l-383 -22q-40 4 -40 34q0 20 17 37.5t42 18.5l103 -6v51q0 11 -2 93l-167 9l-11 45l176 10q-1 27 -1 80q0 70 4 127l45 -10l9 -98.5t9 -94.5l154 9q25 -1 42 -18t17 -37q0 -13 -10 -23t-30 -12q-44 2 -166 10q3 -32 9 -78.5t8 -67.5z" />
    <glyph glyph-name="acute" unicode="&#xb4;" horiz-adv-x="500" 
d="M182 599l-15 5l80 153l80 9l-46 -85l-10 -20l-10 -20t-9.5 -18t-12 -15.5t-14.5 -10t-19 -4t-24 5.5z" />
    <glyph glyph-name="mu" unicode="&#xb5;" horiz-adv-x="480" 
d="M-61 -176v37q36 8 62 30.5t39.5 49t21 67.5t9 71.5t1.5 75.5q0 61 -3 335q4 45 32 45q15 0 28.5 -15t14.5 -39v-183q11 -99 45 -167t70 -68q27 0 51 28q24 27 34 55l10 28q2 50 3 116.5t3 120t8 112.5l48 -9v-9q0 -71 8 -245t15 -257q-20 -8 -38 -8q-15 0 -35 5l-8 59
q1 -3 -7.5 -18.5t-32 -33t-56.5 -17.5q-42 0 -73.5 31t-44.5 61.5t-10 30.5q0 -296 -152 -296q-22 0 -43 7z" />
    <glyph glyph-name="mu" unicode="&#x3bc;" horiz-adv-x="480" 
d="M-61 -176v37q36 8 62 30.5t39.5 49t21 67.5t9 71.5t1.5 75.5q0 61 -3 335q4 45 32 45q15 0 28.5 -15t14.5 -39v-183q11 -99 45 -167t70 -68q27 0 51 28q24 27 34 55l10 28q2 50 3 116.5t3 120t8 112.5l48 -9v-9q0 -71 8 -245t15 -257q-20 -8 -38 -8q-15 0 -35 5l-8 59
q1 -3 -7.5 -18.5t-32 -33t-56.5 -17.5q-42 0 -73.5 31t-44.5 61.5t-10 30.5q0 -296 -152 -296q-22 0 -43 7z" />
    <glyph glyph-name="paragraph" unicode="&#xb6;" horiz-adv-x="658" 
d="M480 445q0 116 4 211q-58 -2 -115 -2q13 -191 37 -751q-9 -31 -35 -31q-18 0 -35 14.5t-21 35.5q2 54 2 277q0 27 -0.5 84t-0.5 85q-72 -24 -131 -24q-47 0 -81 18t-51.5 49.5t-25 66.5t-7.5 76q0 77 41.5 118t119.5 45l418 21q25 -1 42 -18t17 -37q0 -13 -10 -23
t-30 -12l-86 9q13 -186 37 -754q-9 -31 -34 -31q-18 0 -35 14.5t-21 35.5q2 54 2 277q0 41 -0.5 123t-0.5 123z" />
    <glyph glyph-name="periodcentered" unicode="&#xb7;" horiz-adv-x="211" 
d="M111 299q-26 0 -48 14.5t-22 52.5q0 66 60 66q30 0 50 -18t20 -56q0 -28 -16 -43.5t-44 -15.5z" />
    <glyph glyph-name="guillemotright" unicode="&#xbb;" horiz-adv-x="543" 
d="M125 6l-14 31q232 106 349 196q-138 77 -334 228l27 17q41 -22 178.5 -106.5t208.5 -132.5q4 -4 4 -15q0 -8 -3 -14q-238 -159 -416 -204zM28 100l-28 22q37 24 117.5 59t104.5 55q-87 41 -208 141l23 20q38 -35 279 -165q-28 -22 -77.5 -45t-127.5 -54z" />
    <glyph glyph-name="questiondown" unicode="&#xbf;" horiz-adv-x="386" 
d="M325 32l45 -10q16 -41 16 -75q0 -61 -46.5 -94t-114.5 -33q-101 0 -163 58.5t-62 160.5q0 43 17 75.5t41.5 53.5l49.5 42.5t44 55t22 77.5q9 31 35 31q19 0 35 -17t20 -47q0 -42 -20 -75t-49 -55.5l-57.5 -45t-48.5 -56.5t-20 -77q0 -54 48 -86.5t107 -32.5
q47 0 79.5 23.5t32.5 68.5q0 28 -11 58zM226 427q-27 0 -45 23.5t-18 53.5q0 22 10.5 35.5t28.5 13.5q28 0 44 -23t16 -54q0 -22 -9.5 -35.5t-26.5 -13.5z" />
    <glyph glyph-name="Agrave" unicode="&#xc0;" horiz-adv-x="538" 
d="M233 725l76 -5q28 -124 115 -350.5t115 -338.5q0 -29 -10 -43.5t-25 -14.5q-13 0 -24.5 10.5t-15.5 29.5q-9 44 -58 176q-206 26 -259 32q-13 -36 -32 -117t-30 -112q-15 -18 -34 -18q-21 0 -36 18.5t-15 45.5q32 117 116 344t117 343zM268 624q-20 -121 -111 -355h112
q76 0 127 -5q-103 221 -128 360zM298 788l-15 -5q-13 -5 -24 -5.5t-19 4t-14.5 10t-12 15.5t-9.5 18l-10 20l-10 20l-46 85l80 -9z" />
    <glyph glyph-name="Aacute" unicode="&#xc1;" horiz-adv-x="538" 
d="M233 725l76 -5q28 -124 115 -350.5t115 -338.5q0 -29 -10 -43.5t-25 -14.5q-13 0 -24.5 10.5t-15.5 29.5q-9 44 -58 176q-206 26 -259 32q-13 -36 -32 -117t-30 -112q-15 -18 -34 -18q-21 0 -36 18.5t-15 45.5q32 117 116 344t117 343zM268 624q-20 -121 -111 -355h112
q76 0 127 -5q-103 221 -128 360zM265 783l-15 5l80 153l80 9l-46 -85l-10 -20l-10 -20t-9.5 -18t-12 -15.5t-14.5 -10t-19 -4t-24 5.5z" />
    <glyph glyph-name="Acircumflex" unicode="&#xc2;" horiz-adv-x="538" 
d="M233 725l76 -5q28 -124 115 -350.5t115 -338.5q0 -29 -10 -43.5t-25 -14.5q-13 0 -24.5 10.5t-15.5 29.5q-9 44 -58 176q-206 26 -259 32q-13 -36 -32 -117t-30 -112q-15 -18 -34 -18q-21 0 -36 18.5t-15 45.5q32 117 116 344t117 343zM268 624q-20 -121 -111 -355h112
q76 0 127 -5q-103 221 -128 360zM261 900l57 -4l100 -152l-9 -5q-26 -13 -45 -1t-54 62l-43 60l-75 -113l-73 -9q56 102 82 133t60 29z" />
    <glyph glyph-name="Adieresis" unicode="&#xc4;" horiz-adv-x="538" 
d="M233 725l76 -5q28 -124 115 -350.5t115 -338.5q0 -29 -10 -43.5t-25 -14.5q-13 0 -24.5 10.5t-15.5 29.5q-9 44 -58 176q-206 26 -259 32q-13 -36 -32 -117t-30 -112q-15 -18 -34 -18q-21 0 -36 18.5t-15 45.5q32 117 116 344t117 343zM268 624q-20 -121 -111 -355h112
q76 0 127 -5q-103 221 -128 360zM165 893q27 0 45 -23.5t18 -53.5q0 -22 -10.5 -35.5t-28.5 -13.5q-28 0 -44 23t-16 54q0 22 9.5 35.5t26.5 13.5zM338 893q27 0 45 -23.5t18 -53.5q0 -22 -10.5 -35.5t-28.5 -13.5q-28 0 -44 23t-16 54q0 22 9.5 35.5t26.5 13.5z" />
    <glyph glyph-name="Aring" unicode="&#xc5;" horiz-adv-x="538" 
d="M187 749q0 34 24 58t56 24q30 0 52 -21.5t22 -54.5q0 -35 -26 -63q28 -115 112 -332t112 -329q0 -29 -10 -43.5t-25 -14.5q-13 0 -24.5 10.5t-15.5 29.5q-9 44 -58 176q-206 26 -259 32q-13 -36 -32 -117t-30 -112q-15 -18 -34 -18q-21 0 -36 18.5t-15 45.5
q31 117 111.5 333.5t110.5 314.5q-35 21 -35 63zM268 624q-20 -121 -111 -355h112q76 0 127 -5q-103 221 -128 360zM266 790q-17 0 -28 -11.5t-11 -27.5q0 -14 9.5 -26t29.5 -12q19 0 28 12.5t9 29.5q0 14 -9.5 24.5t-27.5 10.5z" />
    <glyph glyph-name="AE" unicode="&#xc6;" horiz-adv-x="858" 
d="M811 45l10 -45q-39 0 -141.5 -3.5t-148.5 -3.5q-74 0 -101 7q4 52 9 205q-54 7 -123 9t-117 7q-12 -32 -57 -113t-57 -116q-15 -18 -34 -18q-20 0 -30.5 17.5t-10.5 46.5q48 109 195 345.5t203 348.5l419 -18l11 -45q-45 -8 -180 -19t-142 -12q1 -23 4.5 -94t4.5 -117
q34 -4 124 -11.5l114 -9.5l10 -46q-211 -19 -247 -20q0 -39 -1.5 -117.5t-1.5 -116.5q1 -9 5 -32q225 -21 283 -29zM449 651q-15 -24 -57.5 -87.5l-69 -104.5l-58.5 -94t-49 -89q51 -3 133.5 -2.5t91.5 -1.5q1 43 2 123t2.5 142t4.5 114z" />
    <glyph glyph-name="Ccedilla" unicode="&#xc7;" horiz-adv-x="540" 
d="M327 -174q0 26 -25 38t-61 5v98q-60 13 -107.5 78t-70 144.5t-22.5 152.5q0 65 10 126.5t34 123.5t72.5 100t115.5 38q58 0 120 -20t106 -50l-40 -46q-78 58 -154 58q-50 0 -86 -24t-54.5 -58t-29 -86t-13 -90t-2.5 -89q0 -50 18.5 -113.5t62.5 -118.5t102 -55
q63 0 193 66q13 -19 34 -63q-91 -62 -227 -75v-37q41 -9 70 -36t29 -66q0 -51 -33 -83t-87 -32q-23 0 -46 7l8 57q83 -11 83 50z" />
    <glyph glyph-name="Egrave" unicode="&#xc8;" horiz-adv-x="468" 
d="M422 45l10 -45q-39 0 -141.5 -3.5t-148.5 -3.5q-74 0 -101 7q10 110 12 368t13 360q34 -3 180.5 -5t191.5 -9l11 -45q-45 -8 -180 -19t-142 -12q1 -23 4.5 -94t4.5 -117q34 -4 124 -11.5l114 -9.5l10 -46q-211 -19 -247 -20q0 -44 -1.5 -133.5t-1.5 -131.5
q229 -21 288 -30zM298 789l-15 -5q-13 -5 -24 -5.5t-19 4t-14.5 10t-12 15.5t-9.5 18l-10 20l-10 20l-46 85l80 -9z" />
    <glyph glyph-name="Eacute" unicode="&#xc9;" horiz-adv-x="468" 
d="M422 45l10 -45q-39 0 -141.5 -3.5t-148.5 -3.5q-74 0 -101 7q10 110 12 368t13 360q34 -3 180.5 -5t191.5 -9l11 -45q-45 -8 -180 -19t-142 -12q1 -23 4.5 -94t4.5 -117q34 -4 124 -11.5l114 -9.5l10 -46q-211 -19 -247 -20q0 -44 -1.5 -133.5t-1.5 -131.5
q229 -21 288 -30zM344 948l14 -5l-79 -152l-80 -10l46 85l10 20l10 20t9.5 18t12 15.5t14.5 10t19 4t24 -5.5z" />
    <glyph glyph-name="Ecircumflex" unicode="&#xca;" horiz-adv-x="468" 
d="M422 45l10 -45q-39 0 -141.5 -3.5t-148.5 -3.5q-74 0 -101 7q10 110 12 368t13 360q34 -3 180.5 -5t191.5 -9l11 -45q-45 -8 -180 -19t-142 -12q1 -23 4.5 -94t4.5 -117q34 -4 124 -11.5l114 -9.5l10 -46q-211 -19 -247 -20q0 -44 -1.5 -133.5t-1.5 -131.5
q229 -21 288 -30zM240 929l57 -4l100 -152l-9 -5q-26 -13 -45 -1t-54 62l-43 60l-75 -113l-73 -9q56 102 82 133t60 29z" />
    <glyph glyph-name="Edieresis" unicode="&#xcb;" horiz-adv-x="468" 
d="M422 45l10 -45h-18q-27 0 -125 -3.5t-147 -3.5q-74 0 -101 7q10 110 12 368t13 360q34 -3 180.5 -5t191.5 -9l11 -45q-45 -8 -180 -19t-142 -12q1 -23 4.5 -94t4.5 -117q34 -4 124 -11.5l114 -9.5l10 -46q-211 -19 -247 -20q0 -44 -1.5 -133.5t-1.5 -131.5
q229 -21 288 -30zM129 953q27 0 45.5 -23t18.5 -53q0 -22 -10.5 -36t-28.5 -14q-28 0 -44.5 23t-16.5 54q0 22 9.5 35.5t26.5 13.5zM343 953q27 0 45.5 -23t18.5 -53q0 -22 -10.5 -36t-28.5 -14q-28 0 -44.5 23t-16.5 54q0 22 9.5 35.5t26.5 13.5z" />
    <glyph glyph-name="Iacute" unicode="&#xcd;" horiz-adv-x="337" 
d="M24 -3l-2 49q92 15 114 16q1 34 1 102q0 90 -4 259.5t-5 224.5l-101 5l-7 58q41 -1 127 -1q88 0 131 -1l3 -50q-17 -7 -48 -8.5t-39 -2.5q3 -28 3.5 -141t0.5 -250t2 -195q16 -3 61 -7t56 -6l-2 -52q-30 1 -95 1q-34 0 -101 -0.5t-95 -0.5zM122 784l-15 5l80 153l80 9
l-46 -85l-10 -20l-10 -20t-9.5 -18t-12 -15.5t-14.5 -10t-19 -4t-24 5.5z" />
    <glyph glyph-name="Icircumflex" unicode="&#xce;" horiz-adv-x="337" 
d="M24 -3l-2 49q92 15 114 16q1 34 1 102q0 90 -4 259.5t-5 224.5l-101 5l-7 58q41 -1 127 -1q88 0 131 -1l3 -50q-17 -7 -48 -8.5t-39 -2.5q3 -28 3.5 -141t0.5 -250t2 -195q16 -3 61 -7t56 -6l-2 -52q-30 1 -95 1q-34 0 -101 -0.5t-95 -0.5zM149 930l57 -4l100 -152l-9 -5
q-26 -13 -45 -1t-54 62l-43 60l-75 -113l-73 -9q56 102 82 133t60 29z" />
    <glyph glyph-name="Idieresis" unicode="&#xcf;" horiz-adv-x="337" 
d="M24 -3l-2 49q92 15 114 16q1 34 1 102q0 90 -4 259.5t-5 224.5l-101 5l-7 58q41 -1 127 -1q88 0 131 -1l3 -50q-17 -7 -48 -8.5t-39 -2.5q3 -28 3.5 -141t0.5 -250t2 -195q16 -3 61 -7t56 -6l-2 -52q-30 1 -95 1q-34 0 -101 -0.5t-95 -0.5zM47 902q27 0 45.5 -23.5
t18.5 -53.5q0 -22 -10.5 -35.5t-28.5 -13.5q-28 0 -44.5 23t-16.5 54q0 22 9.5 35.5t26.5 13.5zM220 902q27 0 45.5 -23.5t18.5 -53.5q0 -22 -10.5 -35.5t-28.5 -13.5q-28 0 -44.5 23t-16.5 54q0 22 9.5 35.5t26.5 13.5z" />
    <glyph glyph-name="Ntilde" unicode="&#xd1;" horiz-adv-x="562" 
d="M41 28l13 692h54l327 -621v79q0 302 11 543l57 -11q11 -217 18 -715q-21 -9 -44 -9q-34 0 -71 20q-61 94 -151.5 275t-128.5 248q1 -68 1.5 -248t3.5 -273q-9 -31 -35 -31q-18 0 -34.5 15t-20.5 36zM322 809q18 0 27.5 7.5t19.5 30.5l49 -23q-29 -82 -97 -77
q-19 1 -53.5 23.5t-46.5 24.5q-23 2 -48 -37l-43 22q17 49 37.5 64t54.5 14q19 -1 52.5 -25t47.5 -24z" />
    <glyph glyph-name="Oacute" unicode="&#xd3;" horiz-adv-x="536" 
d="M42 335v51.5t1.5 53.5t4 57t7.5 54.5t13 54l18.5 46.5t26.5 42t35 30.5t45 21.5t57 7q62 0 108 -24.5t72 -61.5t41.5 -91t20 -103t4.5 -108q0 -40 -1.5 -72t-6 -72.5t-13 -71.5t-23.5 -62.5t-35.5 -52t-51.5 -33.5t-69 -13q-62 0 -106.5 15t-73 42t-45 71t-23 96
t-6.5 123zM424 327q0 49 -7.5 102t-25 114t-55.5 99.5t-91 38.5q-40 0 -70.5 -53.5t-43.5 -120t-13 -125.5q0 -41 0.5 -62.5t3.5 -61t8.5 -62.5t17.5 -53t28.5 -46.5t43 -29t59.5 -13.5q73 4 109 82t36 191zM234 814l-15 5l80 153l80 9l-46 -85l-10 -20l-10 -20t-9.5 -18
t-12 -15.5t-14.5 -10t-19 -4t-24 5.5z" />
    <glyph glyph-name="Ocircumflex" unicode="&#xd4;" horiz-adv-x="536" 
d="M42 335v51.5t1.5 53.5t4 57t7.5 54.5t13 54l18.5 46.5t26.5 42t35 30.5t45 21.5t57 7q62 0 108 -24.5t72 -61.5t41.5 -91t20 -103t4.5 -108q0 -40 -1.5 -72t-6 -72.5t-13 -71.5t-23.5 -62.5t-35.5 -52t-51.5 -33.5t-69 -13q-62 0 -106.5 15t-73 42t-45 71t-23 96
t-6.5 123zM424 327q0 49 -7.5 102t-25 114t-55.5 99.5t-91 38.5q-40 0 -70.5 -53.5t-43.5 -120t-13 -125.5q0 -41 0.5 -62.5t3.5 -61t8.5 -62.5t17.5 -53t28.5 -46.5t43 -29t59.5 -13.5q73 4 109 82t36 191zM240 950l57 -4l100 -152l-9 -5q-26 -13 -45 -1t-54 62l-43 60
l-75 -113l-73 -9q56 102 82 133t60 29z" />
    <glyph glyph-name="Odieresis" unicode="&#xd6;" horiz-adv-x="536" 
d="M42 335v51.5t1.5 53.5t4 57t7.5 54.5t13 54l18.5 46.5t26.5 42t35 30.5t45 21.5t57 7q62 0 108 -24.5t72 -61.5t41.5 -91t20 -103t4.5 -108q0 -40 -1.5 -72t-6 -72.5t-13 -71.5t-23.5 -62.5t-35.5 -52t-51.5 -33.5t-69 -13q-62 0 -106.5 15t-73 42t-45 71t-23 96
t-6.5 123zM424 327q0 49 -7.5 102t-25 114t-55.5 99.5t-91 38.5q-40 0 -70.5 -53.5t-43.5 -120t-13 -125.5q0 -41 0.5 -62.5t3.5 -61t8.5 -62.5t17.5 -53t28.5 -46.5t43 -29t59.5 -13.5q73 4 109 82t36 191zM129 933q27 0 45.5 -23.5t18.5 -53.5q0 -22 -10.5 -35.5
t-28.5 -13.5q-28 0 -44.5 23t-16.5 54q0 22 9.5 35.5t26.5 13.5zM343 933q27 0 45.5 -23.5t18.5 -53.5q0 -22 -10.5 -35.5t-28.5 -13.5q-28 0 -44.5 23t-16.5 54q0 22 9.5 35.5t26.5 13.5z" />
    <glyph glyph-name="Ugrave" unicode="&#xd9;" horiz-adv-x="537" 
d="M425 742l59 -5q13 -184 13 -311q0 -92 -5 -210q-2 -50 -8 -84.5t-21 -67.5t-40.5 -52.5t-66.5 -31t-99 -11.5q-42 0 -74 7.5t-53.5 19.5t-36.5 31.5t-23.5 40.5t-13 50t-6.5 55t-4 61v4q-5 122 -5 207q0 72 6 290l55 -12q2 -92 11 -262.5t12 -242.5q1 -34 3 -54t9.5 -46
t20.5 -40t37 -24t59 -10t60.5 4.5t42 16.5t27 24t16.5 35.5t8.5 41t5.5 51.5q7 86 8 278t3 247zM309 757l-15 -5q-13 -5 -24 -5.5t-19 4t-14.5 10t-12 15.5t-9.5 18l-10 20l-10 20l-46 85l80 -9z" />
    <glyph glyph-name="Uacute" unicode="&#xda;" horiz-adv-x="537" 
d="M425 742l59 -5q13 -184 13 -311q0 -92 -5 -210q-2 -50 -8 -84.5t-21 -67.5t-40.5 -52.5t-66.5 -31t-99 -11.5q-42 0 -74 7.5t-53.5 19.5t-36.5 31.5t-23.5 40.5t-13 50t-6.5 55t-4 61v4q-5 122 -5 207q0 72 6 290l55 -12q2 -92 11 -262.5t12 -242.5q1 -34 3 -54t9.5 -46
t20.5 -40t37 -24t59 -10t60.5 4.5t42 16.5t27 24t16.5 35.5t8.5 41t5.5 51.5q7 86 8 278t3 247zM243 752l-15 5l80 153l80 9l-46 -85l-10 -20l-10 -20t-9.5 -18t-12 -15.5t-14.5 -10t-19 -4t-24 5.5z" />
    <glyph glyph-name="Ucircumflex" unicode="&#xdb;" horiz-adv-x="537" 
d="M425 742l59 -5q13 -184 13 -311q0 -92 -5 -210q-2 -50 -8 -84.5t-21 -67.5t-40.5 -52.5t-66.5 -31t-99 -11.5q-42 0 -74 7.5t-53.5 19.5t-36.5 31.5t-23.5 40.5t-13 50t-6.5 55t-4 61v4q-5 122 -5 207q0 72 6 290l55 -12q2 -92 11 -262.5t12 -242.5q1 -34 3 -54t9.5 -46
t20.5 -40t37 -24t59 -10t60.5 4.5t42 16.5t27 24t16.5 35.5t8.5 41t5.5 51.5q7 86 8 278t3 247zM250 941l57 -4l100 -152l-9 -5q-26 -13 -45 -1t-54 62l-43 60l-75 -113l-73 -9q56 102 82 133t60 29z" />
    <glyph glyph-name="Udieresis" unicode="&#xdc;" horiz-adv-x="537" 
d="M425 742l59 -5q13 -184 13 -311q0 -92 -5 -210q-2 -50 -8 -84.5t-21 -67.5t-40.5 -52.5t-66.5 -31t-99 -11.5q-42 0 -74 7.5t-53.5 19.5t-36.5 31.5t-23.5 40.5t-13 50t-6.5 55t-4 61v4q-5 122 -5 207q0 72 6 290l55 -12q2 -92 11 -262.5t12 -242.5q1 -34 3 -54t9.5 -46
t20.5 -40t37 -24t59 -10t60.5 4.5t42 16.5t27 24t16.5 35.5t8.5 41t5.5 51.5q7 86 8 278t3 247zM160 892q27 0 45 -23.5t18 -53.5q0 -22 -10.5 -35.5t-28.5 -13.5q-28 0 -44 23t-16 54q0 22 9.5 35.5t26.5 13.5zM323 892q27 0 45 -23.5t18 -53.5q0 -22 -10.5 -35.5
t-28.5 -13.5q-28 0 -44 23t-16 54q0 22 9.5 35.5t26.5 13.5z" />
    <glyph glyph-name="germandbls" unicode="&#xdf;" horiz-adv-x="599" 
d="M480 574q0 -40 -24 -69.5t-52 -44t-52 -36.5t-24 -49q0 -21 23 -37.5t56.5 -30.5t66.5 -32.5t56 -51.5t23 -78q0 -64 -47 -112t-122 -49q-55 0 -102.5 23t-75.5 58l28 30q12 -5 36 -16t34 -14.5t29.5 -7.5t41.5 -4q47 0 76.5 21t29.5 59q0 39 -22.5 66t-54.5 42l-63.5 30
t-54 41t-22.5 64q0 35 15 60.5t36 40.5t42.5 28t36.5 32.5t15 45.5q0 34 -28 57t-79 23q-85 0 -131.5 -41t-45.5 -105l6 -504q-12 -39 -40 -39q-13 0 -24.5 11t-15.5 28q0 11 4 177t4 334q0 92 66 150t176 58q82 0 130.5 -46.5t48.5 -111.5z" />
    <glyph glyph-name="agrave" unicode="&#xe0;" horiz-adv-x="411" 
d="M77 432l-20 51q26 26 66 41.5t79 15.5q169 0 169 -292q0 -40 -4.5 -118t-4.5 -117q-8 -31 -31 -31q-18 0 -33 18t-15 40q0 7 1 10q-62 -60 -132 -60q-53 0 -92.5 38.5t-39.5 93.5q0 93 72.5 168t164.5 75q4 0 8 -0.5t9.5 -1.5t8.5 -1q-8 117 -93 117q-50 0 -113 -47z
M286 119q2 70 2 106q0 30 -2 84h-8q-71 -1 -129.5 -53t-58.5 -126q0 -32 19.5 -51t47.5 -19q44 0 129 59zM246 604l-15 -5q-13 -5 -24 -5.5t-19 4t-14.5 10t-12 15.5t-9.5 18l-10 20l-10 20l-46 85l80 -9z" />
    <glyph glyph-name="aacute" unicode="&#xe1;" horiz-adv-x="411" 
d="M77 432l-20 51q26 26 66 41.5t79 15.5q169 0 169 -292q0 -40 -4.5 -118t-4.5 -117q-8 -31 -31 -31q-18 0 -33 18t-15 40q0 7 1 10q-62 -60 -132 -60q-53 0 -92.5 38.5t-39.5 93.5q0 93 72.5 168t164.5 75q4 0 8 -0.5t9.5 -1.5t8.5 -1q-8 117 -93 117q-50 0 -113 -47z
M286 119q2 70 2 106q0 30 -2 84h-8q-71 -1 -129.5 -53t-58.5 -126q0 -32 19.5 -51t47.5 -19q44 0 129 59zM203 599l-15 5l80 153l80 9l-46 -85l-10 -20l-10 -20t-9.5 -18t-12 -15.5t-14.5 -10t-19 -4t-24 5.5z" />
    <glyph glyph-name="acircumflex" unicode="&#xe2;" horiz-adv-x="411" 
d="M77 432l-20 51q26 26 66 41.5t79 15.5q169 0 169 -292q0 -40 -4.5 -118t-4.5 -117q-8 -31 -31 -31q-18 0 -33 18t-15 40q0 7 1 10q-62 -60 -132 -60q-53 0 -92.5 38.5t-39.5 93.5q0 93 72.5 168t164.5 75q4 0 8 -0.5t9.5 -1.5t8.5 -1q-8 117 -93 117q-50 0 -113 -47z
M286 119q2 70 2 106q0 30 -2 84h-8q-71 -1 -129.5 -53t-58.5 -126q0 -32 19.5 -51t47.5 -19q44 0 129 59zM196 740l57 -4l100 -152l-9 -5q-26 -13 -45 -1t-54 62l-43 60l-75 -113l-73 -9q56 102 82 133t60 29z" />
    <glyph glyph-name="adieresis" unicode="&#xe4;" horiz-adv-x="411" 
d="M77 432l-20 51q26 26 66 41.5t79 15.5q169 0 169 -292q0 -40 -4.5 -118t-4.5 -117q-8 -31 -31 -31q-18 0 -33 18t-15 40q0 7 1 10q-62 -60 -132 -60q-53 0 -92.5 38.5t-39.5 93.5q0 93 72.5 168t164.5 75q4 0 8 -0.5t9.5 -1.5t8.5 -1q-8 117 -93 117q-50 0 -113 -47z
M286 119q2 70 2 106q0 30 -2 84h-8q-71 -1 -129.5 -53t-58.5 -126q0 -32 19.5 -51t47.5 -19q44 0 129 59zM87 717q27 0 45 -23.5t18 -53.5q0 -22 -10 -35.5t-28 -13.5q-28 0 -44.5 24t-16.5 53q0 22 9.5 35.5t26.5 13.5zM293 717q27 0 45 -23.5t18 -53.5q0 -22 -10.5 -35.5
t-28.5 -13.5q-28 0 -44 24t-16 53q0 22 9.5 35.5t26.5 13.5z" />
    <glyph glyph-name="aring" unicode="&#xe5;" horiz-adv-x="411" 
d="M77 432l-20 51q26 26 66 41.5t79 15.5q169 0 169 -292q0 -40 -4.5 -118t-4.5 -117q-8 -31 -31 -31q-18 0 -33 18t-15 40q0 7 1 10q-62 -60 -132 -60q-53 0 -92.5 38.5t-39.5 93.5q0 93 72.5 168t164.5 75q4 0 8 -0.5t9.5 -1.5t8.5 -1q-8 117 -93 117q-50 0 -113 -47z
M286 119q2 70 2 106q0 30 -2 84h-8q-71 -1 -129.5 -53t-58.5 -126q0 -32 19.5 -51t47.5 -19q44 0 129 59zM127 649q0 34 24 58.5t56 24.5q29 0 51.5 -22t22.5 -55q0 -32 -21 -57t-53 -25q-31 0 -55.5 21.5t-24.5 54.5zM206 690q-17 0 -28 -11.5t-11 -27.5q0 -14 10.5 -26
t28.5 -12q19 0 28 12.5t9 29.5q0 14 -9.5 24.5t-27.5 10.5z" />
    <glyph glyph-name="ae" unicode="&#xe6;" horiz-adv-x="693" 
d="M664 97l9 -44q-8 -3 -39 -16t-49.5 -19.5t-54.5 -13t-75 -6.5q-78 0 -123 76q-74 -84 -170 -84q-66 0 -104 37t-38 95q0 93 74 140t189 49q0 85 -21 126.5t-72 41.5q-50 0 -113 -47l-20 51q26 26 66 41.5t79 15.5q95 0 133 -96q56 79 182 79q54 0 95 -34.5t41 -89.5
q0 -26 -12 -47t-28.5 -35.5t-46 -26t-50.5 -17.5t-57 -12t-51.5 -7.5l-46.5 -4.5q3 -75 28 -127t82 -52q36 0 80.5 6.5t77.5 13.5t35 7zM286 119q2 70 2 86q0 13 -0.5 17.5t-1 9.5t-0.5 16h-8q-39 0 -68 -4.5t-58.5 -16t-45.5 -36.5t-16 -61q0 -33 23 -51.5t64 -18.5
q72 0 109 59zM366 311q73 5 136.5 30t75.5 52q-7 33 -19 48t-36 15q-60 0 -104.5 -41.5t-52.5 -103.5z" />
    <glyph glyph-name="ccedilla" unicode="&#xe7;" horiz-adv-x="400" 
d="M378 496l-5 -43q-42 6 -72 6q-69 0 -114 -41.5t-61.5 -98t-16.5 -125.5q0 -32 4 -57t14.5 -49t33 -37.5t55.5 -13.5q44 0 112 17q21 8 33 8q24 0 29 -56q-68 -21 -148 -25v-41q48 -10 73.5 -29t25.5 -64q0 -37 -34 -65.5t-87 -28.5q-23 0 -46 7l8 57q83 -11 83 40
q0 20 -25.5 29.5t-60.5 2.5v91q-72 7 -105 62.5t-33 162.5q0 70 9.5 122.5t33.5 98t69.5 69.5t111.5 24q74 0 113 -23z" />
    <glyph glyph-name="egrave" unicode="&#xe8;" horiz-adv-x="453" 
d="M444 97l10 -44q-44 -16 -130.5 -35.5t-128.5 -19.5q-43 0 -75 28.5t-48 73t-23.5 88t-7.5 85.5q0 250 226 250q54 0 95 -34.5t41 -89.5q0 -30 -16.5 -53t-40 -36.5t-60 -24.5t-64.5 -16t-67 -11t-54 -9q1 -29 3.5 -51t10 -47.5t20 -42t34.5 -27.5t52 -11q36 0 88 6.5
t92.5 13.5t42.5 7zM105 311q136 39 223 82q-7 33 -19 48t-36 15q-61 0 -110.5 -42t-57.5 -103zM288 584l-15 -5q-13 -5 -24 -5.5t-19 4t-14.5 10t-12 15.5t-9.5 18l-10 20l-10 20l-46 85l80 -9z" />
    <glyph glyph-name="eacute" unicode="&#xe9;" horiz-adv-x="453" 
d="M444 97l10 -44q-44 -16 -130.5 -35.5t-128.5 -19.5q-43 0 -75 28.5t-48 73t-23.5 88t-7.5 85.5q0 250 226 250q54 0 95 -34.5t41 -89.5q0 -30 -16.5 -53t-40 -36.5t-60 -24.5t-64.5 -16t-67 -11t-54 -9q1 -29 3.5 -51t10 -47.5t20 -42t34.5 -27.5t52 -11q36 0 88 6.5
t92.5 13.5t42.5 7zM105 311q136 39 223 82q-7 33 -19 48t-36 15q-61 0 -110.5 -42t-57.5 -103zM334 733l14 -5l-80 -153l-80 -9l46 85l10 20l10 20t10 18t12.5 15.5t14.5 10t19 4t24 -5.5z" />
    <glyph glyph-name="ecircumflex" unicode="&#xea;" horiz-adv-x="453" 
d="M444 97l10 -44q-44 -16 -130.5 -35.5t-128.5 -19.5q-43 0 -75 28.5t-48 73t-23.5 88t-7.5 85.5q0 250 226 250q54 0 95 -34.5t41 -89.5q0 -30 -16.5 -53t-40 -36.5t-60 -24.5t-64.5 -16t-67 -11t-54 -9q1 -29 3.5 -51t10 -47.5t20 -42t34.5 -27.5t52 -11q36 0 88 6.5
t92.5 13.5t42.5 7zM105 311q136 39 223 82q-7 33 -19 48t-36 15q-61 0 -110.5 -42t-57.5 -103zM228 720l57 -4l100 -152l-9 -5q-26 -13 -45 -1t-54 62l-43 60l-75 -113l-73 -9q56 102 82 133t60 29z" />
    <glyph glyph-name="edieresis" unicode="&#xeb;" horiz-adv-x="453" 
d="M444 97l10 -44q-44 -16 -130.5 -35.5t-128.5 -19.5q-43 0 -75 28.5t-48 73t-23.5 88t-7.5 85.5q0 250 226 250q54 0 95 -34.5t41 -89.5q0 -30 -16.5 -53t-40 -36.5t-60 -24.5t-64.5 -16t-67 -11t-54 -9q1 -29 3.5 -51t10 -47.5t20 -42t34.5 -27.5t52 -11q36 0 88 6.5
t92.5 13.5t42.5 7zM105 311q136 39 223 82q-7 33 -19 48t-36 15q-61 0 -110.5 -42t-57.5 -103zM120 717q27 0 45 -23.5t18 -53.5q0 -22 -10 -35.5t-28 -13.5q-28 0 -44.5 24t-16.5 53q0 22 9.5 35.5t26.5 13.5zM326 717q27 0 45 -23.5t18 -53.5q0 -22 -10.5 -35.5
t-28.5 -13.5q-28 0 -44 24t-16 53q0 22 9.5 35.5t26.5 13.5z" />
    <glyph glyph-name="iacute" unicode="&#xed;" horiz-adv-x="181" 
d="M63 514l46 -10q8 -82 14 -257.5t8 -217.5q-9 -31 -35 -31q-18 0 -34.5 14.5t-20.5 35.5q2 41 8 213.5t14 252.5zM61 579l-15 5l80 153l80 9l-46 -85l-10 -20l-10 -20t-9.5 -18t-12 -15.5t-14.5 -10t-19 -4t-24 5.5z" />
    <glyph glyph-name="icircumflex" unicode="&#xee;" horiz-adv-x="181" 
d="M63 514l46 -10q8 -82 14 -257.5t8 -217.5q-9 -31 -35 -31q-18 0 -34.5 14.5t-20.5 35.5q2 41 8 213.5t14 252.5zM83 701l57 -4l100 -152l-9 -5q-26 -13 -45 -1t-54 62l-43 60l-75 -113l-73 -9q56 102 82 133t60 29z" />
    <glyph glyph-name="idieresis" unicode="&#xef;" horiz-adv-x="181" 
d="M63 514l46 -10q8 -82 14 -257.5t8 -217.5q-9 -31 -35 -31q-18 0 -34.5 14.5t-20.5 35.5q2 41 8 213.5t14 252.5zM-15 703q27 0 45 -23t18 -53q0 -22 -10.5 -35.5t-28.5 -13.5q-28 0 -44 22.5t-16 53.5q0 22 9.5 35.5t26.5 13.5zM148 703q28 0 46 -23t18 -53
q0 -22 -10.5 -35.5t-28.5 -13.5q-28 0 -44 22.5t-16 53.5q0 22 9 35.5t26 13.5z" />
    <glyph glyph-name="ntilde" unicode="&#xf1;" horiz-adv-x="423" 
d="M109 400l4 -396q-15 -8 -36 -8q-16 0 -36 5q3 63 4 248t8 274l45 -10l3 -56q53 56 122 56q35 0 56 -5t40.5 -24.5t29.5 -51.5t18 -91.5t11.5 -139t4.5 -200.5q-6 -2 -23 -2q-36 0 -56 9q-4 16 -4 53q0 19 1.5 71.5t1.5 81.5q0 48 -3.5 84t-13 71t-29 54t-48.5 19
q-33 0 -51.5 -5t-26 -12t-22.5 -25zM254 639q18 0 27.5 7.5t19.5 30.5l49 -23q-29 -82 -97 -77q-19 1 -53.5 23.5t-46.5 24.5q-23 2 -48 -37l-43 22q17 49 37.5 64t54.5 14q19 -1 52.5 -25t47.5 -24z" />
    <glyph glyph-name="oacute" unicode="&#xf3;" 
d="M41 213q0 40 8.5 89t25.5 103t51 90t79 36q96 0 154 -86.5t58 -192.5q0 -45 -9.5 -89.5t-29.5 -87.5t-57.5 -71.5t-87.5 -32.5q-92 12 -142 78.5t-50 163.5zM211 479q-35 -4 -59 -64t-31 -116.5t-7 -99.5q0 -56 34.5 -103.5t77.5 -47.5q31 0 56 24t39.5 59.5t22 71.5
t7.5 64q0 82 -37 143t-103 69zM324 754l14 -5l-80 -153l-80 -9l46 85l10 20l10 20t10 18t12.5 15.5t14.5 10t19 4t24 -5.5z" />
    <glyph glyph-name="ocircumflex" unicode="&#xf4;" 
d="M41 213q0 40 8.5 89t25.5 103t51 90t79 36q96 0 154 -86.5t58 -192.5q0 -45 -9.5 -89.5t-29.5 -87.5t-57.5 -71.5t-87.5 -32.5q-92 12 -142 78.5t-50 163.5zM211 479q-35 -4 -59 -64t-31 -116.5t-7 -99.5q0 -56 34.5 -103.5t77.5 -47.5q31 0 56 24t39.5 59.5t22 71.5
t7.5 64q0 82 -37 143t-103 69zM210 730l57 -4l100 -152l-9 -5q-26 -13 -45 -1t-54 62l-43 60l-75 -113l-73 -9q56 102 82 133t60 29z" />
    <glyph glyph-name="odieresis" unicode="&#xf6;" 
d="M41 213q0 40 8.5 89t25.5 103t51 90t79 36q96 0 154 -86.5t58 -192.5q0 -45 -9.5 -89.5t-29.5 -87.5t-57.5 -71.5t-87.5 -32.5q-92 12 -142 78.5t-50 163.5zM211 479q-35 -4 -59 -64t-31 -116.5t-7 -99.5q0 -56 34.5 -103.5t77.5 -47.5q31 0 56 24t39.5 59.5t22 71.5
t7.5 64q0 82 -37 143t-103 69zM96 710q27 0 45 -23.5t18 -53.5q0 -22 -10 -35.5t-28 -13.5q-28 0 -44.5 24t-16.5 53q0 22 9.5 35.5t26.5 13.5zM302 710q27 0 45 -23.5t18 -53.5q0 -22 -10.5 -35.5t-28.5 -13.5q-28 0 -44 24t-16 53q0 22 9.5 35.5t26.5 13.5z" />
    <glyph glyph-name="ugrave" unicode="&#xf9;" horiz-adv-x="450" 
d="M338 502l48 -9v-10q0 -68 8.5 -230t15.5 -250q-20 -8 -38 -8q-16 0 -36 5l-8 26q-64 -36 -122 -36q-43 0 -74.5 20t-48.5 49.5t-27 73t-12.5 79t-2.5 79.5q0 128 16 235l45 -10q7 -33 7 -72q0 -22 -2.5 -76t-2.5 -82q0 -49 4.5 -84.5t17 -69t38.5 -51.5t65 -18
q44 0 95 20q2 37 4 189.5t10 229.5zM277 534l-15 -5q-13 -5 -24 -5.5t-19 4t-14.5 10t-12 15.5t-9.5 18l-10 20l-10 20l-46 85l80 -9z" />
    <glyph glyph-name="uacute" unicode="&#xfa;" horiz-adv-x="450" 
d="M338 502l48 -9v-10q0 -68 8.5 -230t15.5 -250q-20 -8 -38 -8q-16 0 -36 5l-8 26q-64 -36 -122 -36q-43 0 -74.5 20t-48.5 49.5t-27 73t-12.5 79t-2.5 79.5q0 128 16 235l45 -10q7 -33 7 -72q0 -22 -2.5 -76t-2.5 -82q0 -49 4.5 -84.5t17 -69t38.5 -51.5t65 -18
q44 0 95 20q2 37 4 189.5t10 229.5zM193 539l-15 5l80 153l80 9l-46 -85l-10 -20l-10 -20t-9.5 -18t-12 -15.5t-14.5 -10t-19 -4t-24 5.5z" />
    <glyph glyph-name="ucircumflex" unicode="&#xfb;" horiz-adv-x="450" 
d="M338 502l48 -9v-10q0 -68 8.5 -230t15.5 -250q-20 -8 -38 -8q-16 0 -36 5l-8 26q-64 -36 -122 -36q-43 0 -74.5 20t-48.5 49.5t-27 73t-12.5 79t-2.5 79.5q0 128 16 235l45 -10q7 -33 7 -72q0 -22 -2.5 -76t-2.5 -82q0 -49 4.5 -84.5t17 -69t38.5 -51.5t65 -18
q44 0 95 20q2 37 4 189.5t10 229.5zM217 720l57 -4l100 -152l-9 -5q-26 -13 -45 -1t-54 62l-43 60l-75 -113l-73 -9q56 102 82 133t60 29z" />
    <glyph glyph-name="udieresis" unicode="&#xfc;" horiz-adv-x="450" 
d="M338 502l48 -9v-10q0 -68 8.5 -230t15.5 -250q-20 -8 -38 -8q-16 0 -36 5l-8 26q-64 -36 -122 -36q-43 0 -74.5 20t-48.5 49.5t-27 73t-12.5 79t-2.5 79.5q0 128 16 235l45 -10q7 -33 7 -72q0 -22 -2.5 -76t-2.5 -82q0 -49 4.5 -84.5t17 -69t38.5 -51.5t65 -18
q44 0 95 20q2 37 4 189.5t10 229.5zM136 676q27 0 45.5 -23.5t18.5 -53.5q0 -22 -10.5 -35.5t-28.5 -13.5q-28 0 -44.5 24t-16.5 53q0 22 9.5 35.5t26.5 13.5zM291 676q27 0 45 -23.5t18 -53.5q0 -22 -10.5 -35.5t-28.5 -13.5q-28 0 -44 24t-16 53q0 22 9.5 35.5t26.5 13.5z
" />
    <glyph glyph-name="ydieresis" unicode="&#xff;" horiz-adv-x="437" 
d="M113 -296l-62 35q41 71 145 270q-81 72 -124 218t-52 292l58 -3q5 -24 21.5 -109.5t26.5 -126.5t35.5 -102.5t58.5 -103.5q139 267 139 438v11q52 -8 78 -19q-16 -105 -50 -214t-85 -219.5t-90.5 -185.5zM126 686q27 0 45 -23.5t18 -53.5q0 -22 -10 -35.5t-28 -13.5
q-28 0 -44.5 24t-16.5 53q0 22 9.5 35.5t26.5 13.5zM281 686q27 0 45 -23.5t18 -53.5q0 -22 -10.5 -35.5t-28.5 -13.5q-28 0 -44 24t-16 53q0 22 9.5 35.5t26.5 13.5z" />
    <glyph glyph-name="dotlessi" unicode="&#x131;" horiz-adv-x="181" 
d="M63 514l46 -10q8 -82 14 -257.5t8 -217.5q-9 -31 -35 -31q-18 0 -34.5 14.5t-20.5 35.5q2 41 8 213.5t14 252.5z" />
    <glyph glyph-name="OE" unicode="&#x152;" horiz-adv-x="826" 
d="M779 45l11 -45q-39 0 -141.5 -3.5t-148.5 -3.5q-56 0 -93 5q-191 1 -273.5 83t-82.5 254q0 204 93 297.5t289 93.5q21 -1 168.5 -2.5t194.5 -9.5l10 -45q-45 -8 -180 -19t-142 -12q1 -28 5 -97t5 -114q34 -4 123.5 -11.5l113.5 -9.5l10 -46q-211 -19 -246 -20
q0 -44 -1.5 -133.5t-1.5 -131.5q226 -21 287 -30zM127 382q0 -173 60.5 -242.5t211.5 -74.5l14 595q-140 -4 -213 -75t-73 -203z" />
    <glyph glyph-name="oe" unicode="&#x153;" horiz-adv-x="719" 
d="M680 87l9 -44q-146 -55 -197 -55q-107 0 -140 98q-8 -48 -51 -80t-98 -35q-95 12 -139 73.5t-44 178.5q0 138 48 223t127 85q65 0 107.5 -28.5t54.5 -71.5q62 92 187 92q53 0 94.5 -32.5t41.5 -80.5q0 -20 -7.5 -36.5t-25 -29.5t-35 -23t-47.5 -20t-53 -17t-61 -17.5
l-62 -17.5q9 -190 129 -190q22 0 59.5 6.5t68 14t34.5 7.5zM201 469q-49 -6 -78.5 -83.5t-29.5 -176.5q0 -74 33.5 -117.5t79.5 -43.5q106 0 106 225q0 184 -111 196zM538 459q-58 0 -106 -40.5t-48 -104.5l15 5q10 3 64.5 20.5t90 30t57.5 23.5q-7 30 -27 48t-46 18z" />
    <glyph glyph-name="Ydieresis" unicode="&#x178;" horiz-adv-x="422" 
d="M388 723l55 -17q-9 -17 -44.5 -95.5t-77.5 -161.5t-82 -146q4 -49 5 -152t4 -148q-9 -2 -46 -2q-35 0 -42 2q3 43 4.5 147.5t5.5 152.5q-50 83 -111.5 232t-78.5 184l67 5l158 -340q18 32 82.5 159t100.5 180zM109 882q27 0 45 -23.5t18 -53.5q0 -22 -10.5 -35.5
t-28.5 -13.5q-28 0 -44 23t-16 54q0 22 9.5 35.5t26.5 13.5zM282 882q27 0 45 -23.5t18 -53.5q0 -22 -10.5 -35.5t-28.5 -13.5q-28 0 -44 23t-16 54q0 22 9.5 35.5t26.5 13.5z" />
    <glyph glyph-name="circumflex" unicode="&#x2c6;" horiz-adv-x="500" 
d="M239 740l57 -4l100 -152l-9 -5q-26 -13 -45 -1t-54 62l-43 60l-75 -113l-73 -9q56 102 82 133t60 29z" />
    <glyph glyph-name="ring" unicode="&#x2da;" horiz-adv-x="500" 
d="M157 649q0 34 24 58.5t56 24.5q29 0 51.5 -22t22.5 -55q0 -32 -21 -57t-53 -25q-31 0 -55.5 21.5t-24.5 54.5zM236 690q-17 0 -28 -11.5t-11 -27.5q0 -14 10.5 -26t28.5 -12q19 0 28 12.5t9 29.5q0 14 -9.5 24.5t-27.5 10.5z" />
    <glyph glyph-name="tilde" unicode="&#x2dc;" horiz-adv-x="500" 
d="M295 639q18 0 27.5 7.5t19.5 30.5l49 -23q-29 -82 -97 -77q-19 1 -53.5 23.5t-46.5 24.5q-23 2 -48 -37l-43 22q17 49 37.5 64t54.5 14q19 -1 52.5 -25t47.5 -24z" />
    <glyph glyph-name="afii10023" unicode="&#x401;" horiz-adv-x="468" 
d="M422 45l10 -45h-18q-27 0 -125 -3.5t-147 -3.5q-74 0 -101 7q10 110 12 368t13 360q34 -3 180.5 -5t191.5 -9l11 -45q-45 -8 -180 -19t-142 -12q1 -23 4.5 -94t4.5 -117q34 -4 124 -11.5l114 -9.5l10 -46q-211 -19 -247 -20q0 -44 -1.5 -133.5t-1.5 -131.5
q229 -21 288 -30zM129 953q27 0 45.5 -23t18.5 -53q0 -22 -10.5 -36t-28.5 -14q-28 0 -44.5 23t-16.5 54q0 22 9.5 35.5t26.5 13.5zM343 953q27 0 45.5 -23t18.5 -53q0 -22 -10.5 -36t-28.5 -14q-28 0 -44.5 23t-16.5 54q0 22 9.5 35.5t26.5 13.5z" />
    <glyph glyph-name="afii10051" unicode="&#x402;" horiz-adv-x="588" 
d="M473 128q0 100 -25 155t-95 55q-45 0 -111 -30q-6 -277 -8 -305l-69 -10q-3 34 -3 320.5t-2 348.5l-150 9l-10 45l382 22q25 -1 42 -18t17 -37q0 -13 -10 -23t-30 -12l-152 8l-5 -258q65 18 108 18q97 0 146.5 -69t49.5 -193q0 -68 -12 -113t-35.5 -67.5t-49.5 -31
t-63 -8.5q-19 0 -43 8v36q68 15 98 50.5t30 99.5z" />
    <glyph glyph-name="afii10052" unicode="&#x403;" horiz-adv-x="430" 
d="M420 716l10 -45q-44 -3 -154 -9.5t-154 -10.5q3 -95 4 -318t5 -327q-9 -31 -35 -31q-18 0 -34.5 15t-20.5 36q11 126 14 589q0 17 0.5 52t0.5 55q54 -3 109 -3q22 0 66 0.5t66 0.5q68 0 123 -4zM197 758l-30 27q2 3 24.5 26t46 50.5t31.5 46.5q6 4 19 4q19 0 35.5 -7
t16.5 -18q0 -24 -53.5 -69t-89.5 -60z" />
    <glyph glyph-name="afii10053" unicode="&#x404;" horiz-adv-x="530" 
d="M121 416q2 0 11 0.5t15 0.5q33 0 88.5 -2t96.5 -4t41 -3l7 -36q-41 -27 -259 -43q-2 -14 -2 -25q0 -50 23.5 -111t67.5 -108t93 -47q63 0 193 66q13 -19 34 -63q-126 -87 -226 -87q-64 0 -116.5 39t-83.5 99.5t-47 126t-16 124.5q0 51 5.5 99.5t21.5 102.5t41 93.5
t67.5 65.5t96.5 26q58 0 120 -20t106 -50l-40 -46q-78 58 -153 58q-77 0 -128 -64.5t-57 -191.5z" />
    <glyph glyph-name="afii10054" unicode="&#x405;" 
d="M28 57l14 56q87 -47 171 -47q60 0 102.5 24.5t42.5 79.5q0 49 -36 89.5t-87 71.5l-102 63.5t-87 80t-36 105.5q0 71 51 129.5t123 58.5q55 0 122.5 -22t113.5 -44l-12 -40q-114 39 -192 39q-48 0 -82 -31t-34 -80q0 -37 19 -67t49.5 -52t68 -43t74.5 -45t67.5 -52
t49.5 -70.5t19 -95.5q0 -75 -48 -122.5t-125 -47.5q-66 0 -140.5 18.5t-105.5 43.5z" />
    <glyph glyph-name="afii10055" unicode="&#x406;" horiz-adv-x="337" 
d="M24 -3l-2 49q92 15 114 16q1 34 1 102q0 90 -4 259.5t-5 224.5l-101 5l-7 58q41 -1 127 -1q88 0 131 -1l3 -50q-17 -7 -48 -8.5t-39 -2.5q3 -28 3.5 -141t0.5 -250t2 -195q16 -3 61 -7t56 -6l-2 -52q-30 1 -95 1q-34 0 -101 -0.5t-95 -0.5z" />
    <glyph glyph-name="afii10056" unicode="&#x407;" horiz-adv-x="337" 
d="M24 -3l-2 49q92 15 114 16q1 34 1 102q0 90 -4 259.5t-5 224.5l-101 5l-7 58q41 -1 127 -1q88 0 131 -1l3 -50q-17 -7 -48 -8.5t-39 -2.5q3 -28 3.5 -141t0.5 -250t2 -195q16 -3 61 -7t56 -6l-2 -52q-30 1 -95 1q-34 0 -101 -0.5t-95 -0.5zM213 898q27 0 45 -23.5
t18 -53.5q0 -22 -10 -35.5t-28 -13.5q-28 0 -44.5 23t-16.5 54q0 22 9.5 35.5t26.5 13.5zM59 898q27 0 45.5 -23.5t18.5 -53.5q0 -22 -10.5 -35.5t-28.5 -13.5q-28 0 -44 23t-16 54q0 22 9 35.5t26 13.5z" />
    <glyph glyph-name="afii10057" unicode="&#x408;" horiz-adv-x="389" 
d="M0 98l51 26q58 -78 132 -78q56 0 73.5 40t17.5 131q0 66 -2 206t-2 220q0 54 1 82q7 -3 19 -3q4 0 11.5 0.5t12.5 0.5q17 0 30 -6q-2 -68 -2 -104q0 -57 3 -183.5t3 -196.5q0 -45 -0.5 -68t-2.5 -54.5t-6.5 -46t-13 -34.5t-20.5 -27.5t-30.5 -16.5t-42.5 -11.5t-56 -2.5
q-123 0 -176 126z" />
    <glyph glyph-name="afii10058" unicode="&#x409;" horiz-adv-x="860" 
d="M-43 -94l-29 52q55 37 94 85.5t61 97t35 110.5t16.5 114.5t3.5 121.5q0 36 2.5 111.5t2.5 115.5q29 5 89 5q25 0 76 -1.5t77 -1.5q48 0 88 4q12 -67 12 -210q0 -54 -1 -82q27 3 56 3q132 0 216 -74.5t84 -174.5q0 -202 -251 -202q-66 0 -119.5 9.5t-61.5 24.5q0 25 1 37
q0 14 0.5 41.5t0.5 42.5q0 58 -3 182t-3 192q0 69 3 137q-24 2 -83.5 3t-90.5 5q-9 -52 -14.5 -135.5t-9 -148t-18 -142t-39 -134.5t-74 -108.5t-121.5 -79.5zM484 352q4 -117 11 -284q69 -9 120 -9q141 0 141 134q0 69 -59.5 116t-156.5 47q-31 0 -56 -4z" />
    <glyph glyph-name="afii10059" unicode="&#x40a;" horiz-adv-x="802" 
d="M349 719l58 12q17 -131 20 -304q27 3 55 3q132 0 216 -74.5t84 -174.5q0 -203 -251 -203q-65 0 -119 10t-62 25v332q-65 -2 -195 -2q-26 0 -38 1q2 -62 7.5 -179t6.5 -157q-9 -31 -35 -31q-18 0 -34.5 15t-20.5 36q3 86 5.5 334t9.5 369l45 -10q0 -6 1 -19t1 -20
q12 -211 14 -279q36 3 112.5 5t117.5 6q1 0 1 10t0.5 81t0.5 214zM429 351q1 -131 8 -284q69 -9 121 -9q140 0 140 133q0 69 -59.5 116.5t-156.5 47.5q-29 0 -53 -4z" />
    <glyph glyph-name="afii10060" unicode="&#x40b;" horiz-adv-x="599" 
d="M10 671l-10 45l382 22q25 -1 42 -18t17 -37q0 -13 -10 -23t-30 -12l-152 8l-5 -258q65 18 108 18q99 0 152.5 -67.5t53.5 -189.5q0 -77 -18 -168l-66 10q3 47 3 88q0 121 -26.5 185t-97.5 64q-45 0 -111 -30q0 -17 -0.5 -134t-4.5 -171h-72q-3 34 -3 315.5t-2 343.5z" />
    <glyph glyph-name="afii10061" unicode="&#x40c;" horiz-adv-x="523" 
d="M520 22l3 -38q-53 -16 -101 -16q-46 0 -78.5 24.5t-49 61.5t-33 80l-31 80t-42.5 61.5t-67 24.5l10 -294q-9 -31 -35 -31q-18 0 -34.5 15t-20.5 36q1 21 7 338.5t9 367.5l45 -10q1 -38 6 -142.5t6 -141.5q43 1 73.5 32.5t50 76.5l39.5 89.5t52.5 76t77.5 31.5
q34 0 115 -15l-10 -40q-62 10 -71 10q-35 0 -59 -29t-40 -72.5t-35 -89t-56 -83.5t-91 -51q48 -11 83 -43t52 -72t33 -84.5l28 -80.5t33.5 -60t52.5 -24q30 0 78 12zM197 758l-30 27q2 3 24.5 26t46 50.5t31.5 46.5q6 4 19 4q19 0 35.5 -7t16.5 -18q0 -24 -53.5 -69
t-89.5 -60z" />
    <glyph glyph-name="afii10062" unicode="&#x40e;" horiz-adv-x="491" 
d="M0 682l52 49q45 -74 114 -228t94 -203q100 257 151 410q13 24 33 24q18 0 32 -17.5t16 -40.5l-107.5 -237.5t-125 -269t-109.5 -201.5l-65 13l129 253q-36 99 -214 448zM133 780l-7 32q24 -3 47 -3q69 0 127 38q23 -2 39 -14t16 -28q0 -13 -9 -21t-27 -11.5t-30 -4
t-32 -0.5q-69 0 -124 12z" />
    <glyph glyph-name="afii10145" unicode="&#x40f;" horiz-adv-x="480" 
d="M253 -167l-45 10l-10 134h-142q-7 121 -9.5 369.5t-5.5 334.5q4 21 20.5 35.5t34.5 14.5q26 0 35 -31q-2 -65 -9.5 -355t-7.5 -293q26 2 74 2q30 0 79.5 -3t71.5 -3q0 55 5 303.5t5 329.5q4 21 20.5 35.5t34.5 14.5q26 0 35 -31q-5 -81 -9.5 -331.5t-22.5 -391.5h-144z
" />
    <glyph glyph-name="afii10017" unicode="&#x410;" horiz-adv-x="538" 
d="M233 725l76 -5q28 -124 115 -350.5t115 -338.5q0 -29 -10 -43.5t-25 -14.5q-13 0 -24.5 10.5t-15.5 29.5q-9 44 -58 176q-206 26 -259 32q-13 -36 -32 -117t-30 -112q-15 -18 -34 -18q-21 0 -36 18.5t-15 45.5q32 117 116 344t117 343zM268 624q-20 -121 -111 -355h112
q76 0 127 -5q-103 221 -128 360z" />
    <glyph glyph-name="afii10018" unicode="&#x411;" horiz-adv-x="477" 
d="M399 731l-12 -51q-51 -4 -133 -8t-133 -7v-226q51 14 93 14q111 0 177 -73.5t66 -186.5q0 -63 -50 -109.5t-116.5 -67t-134.5 -20.5q-83 0 -115 30q3 86 6 335t10 370h342zM122 394v-23t-0.5 -90t-0.5 -182q30 -34 77 -34q62 0 120 51.5t58 110.5q0 78 -54.5 126.5
t-135.5 48.5q-27 0 -64 -8z" />
    <glyph glyph-name="afii10019" unicode="&#x412;" horiz-adv-x="497" 
d="M41 26l5 704q11 37 86 37q69 0 127 -18.5t97.5 -62t39.5 -104.5q0 -48 -23.5 -93t-57.5 -58q64 -9 103 -77t39 -161q0 -63 -50 -109.5t-116.5 -67t-134.5 -20.5q-83 0 -115 30zM123 376q0 -69 -2 -277q30 -34 77 -34q62 0 120 51.5t58 110.5q0 73 -49 114t-126 41
q-51 0 -78 -6zM121 450l62 1q64 0 98.5 37.5t34.5 89.5q0 53 -35 91.5t-97 38.5q-28 0 -66 -12q2 -61 2.5 -151t0.5 -95z" />
    <glyph glyph-name="afii10020" unicode="&#x413;" horiz-adv-x="430" 
d="M420 716l10 -45q-44 -3 -154 -9.5t-154 -10.5q3 -95 4 -318t5 -327q-9 -31 -35 -31q-18 0 -34.5 15t-20.5 36q11 126 14 589q0 17 0.5 52t0.5 55q54 -3 109 -3q22 0 66 0.5t66 0.5q68 0 123 -4z" />
    <glyph glyph-name="afii10021" unicode="&#x414;" horiz-adv-x="563" 
d="M539 -128l-45 10q-9 76 -31 124q-83 6 -166 6q-71 0 -211 -6q-6 -21 -23 -146l-43 4q-20 107 -20 184q0 4 0.5 14t0.5 15q1 0 33 0.5t33 0.5q26 53 42.5 114.5t22.5 132t8 124t2 136.5t1 124q70 5 312 5l22 -627q16 -2 33 -3l33 -2q-3 -21 -3 -52q0 -16 1 -50.5t1 -51.5
q0 -34 -3 -56zM147 84q27 0 81 -1.5t80 -1.5q38 0 79 3q2 63 2 197v199q0 119 2 177q-28 2 -42 2q-23 0 -66.5 -3l-58.5 -4q-3 -45 -7 -141.5t-8 -149.5t-19.5 -131.5t-42.5 -145.5z" />
    <glyph glyph-name="afii10022" unicode="&#x415;" horiz-adv-x="448" 
d="M422 45l10 -45q-39 0 -141.5 -3.5t-148.5 -3.5q-74 0 -101 7q10 110 12 368t13 360q34 -3 180.5 -5t191.5 -9l11 -45q-45 -8 -180 -19t-142 -12q1 -23 4.5 -94t4.5 -117q34 -4 124 -11.5l114 -9.5l10 -46q-211 -19 -247 -20q0 -44 -1.5 -133.5t-1.5 -131.5
q229 -21 288 -30z" />
    <glyph glyph-name="afii10024" unicode="&#x416;" horiz-adv-x="844" 
d="M382 307q-39 0 -67 -24.5t-42.5 -61.5l-31 -80t-33 -80t-49 -61.5t-78.5 -24.5q-48 0 -101 16l3 38q48 -12 77 -12q31 0 53 24t33.5 60t27.5 80.5t33.5 84.5t52.5 72t83 43q-54 13 -91 51.5t-56 83.5t-35.5 89t-40.5 73t-59 29q-2 0 -70 -11l-10 40q86 16 115 16
q45 0 77.5 -31.5t52.5 -76.5l39.5 -90t50 -76.5t73.5 -32.5l6 287l50 -10q1 -38 5.5 -139t5.5 -138q43 1 73.5 32.5t50 76.5l39.5 90t52.5 76.5t77.5 31.5q29 0 115 -16l-10 -40q-68 11 -71 11q-35 0 -59 -29t-40 -73t-35 -89t-56 -83.5t-91 -51.5q48 -11 83 -43t52 -72
t33 -84.5l28 -80.5t33.5 -60t52.5 -24q30 0 78 12l3 -38q-53 -16 -101 -16q-46 0 -78.5 24.5t-49 61.5t-33 80l-31 80t-42.5 61.5t-67 24.5l6 -301q-9 -31 -35 -31q-18 0 -34.5 15t-20.5 36q2 33 3 281z" />
    <glyph glyph-name="afii10025" unicode="&#x417;" horiz-adv-x="464" 
d="M58 626l-31 33q107 71 195 71q76 0 123 -54.5t47 -134.5q0 -100 -68 -141q50 -8 75 -59.5t25 -122.5q0 -108 -46 -167t-153 -59q-72 0 -135.5 32t-89.5 92q5 4 7 8l3 6t5.5 5.5t14.5 8.5q44 -40 98 -64.5t102 -24.5q54 0 86.5 35.5t32.5 109.5q0 76 -43 123t-127 47
q-12 0 -42 -2q-1 6 -4.5 22t-8.5 51q11 1 40 2.5t41 3t34.5 6t33 12.5t23 20.5t17.5 32.5t5 47q0 49 -32.5 71.5t-86.5 22.5q-72 0 -141 -33z" />
    <glyph glyph-name="afii10026" unicode="&#x418;" horiz-adv-x="527" 
d="M56 733l45 -10q10 -165 23 -549q195 347 268 558q15 12 29 12q22 0 36.5 -26t15.5 -59q3 -93 5.5 -314t7.5 -330q-9 -30 -34 -30q-18 0 -35 14.5t-21 35.5q3 87 3.5 267t1.5 243q-22 -38 -77 -144t-101.5 -182t-95.5 -132l4 -81q-9 -31 -35 -31q-18 0 -34.5 15t-20.5 36
q3 85 6 333t9 374z" />
    <glyph glyph-name="afii10027" unicode="&#x419;" horiz-adv-x="527" 
d="M148 811l-7 32q24 -3 47 -3q69 0 127 38q23 -2 39.5 -14t16.5 -28q0 -37 -99 -37q-69 0 -124 12zM56 733l45 -10q10 -165 23 -549q195 347 268 558q15 12 29 12q22 0 36.5 -26t15.5 -59q3 -93 5.5 -314t7.5 -330q-9 -30 -34 -30q-18 0 -35 14.5t-21 35.5q3 87 3.5 267
t1.5 243q-22 -38 -77 -144t-101.5 -182t-95.5 -132l4 -81q-9 -31 -35 -31q-18 0 -34.5 15t-20.5 36q3 85 6 333t9 374z" />
    <glyph glyph-name="afii10028" unicode="&#x41a;" horiz-adv-x="523" 
d="M520 22l3 -38q-53 -16 -101 -16q-46 0 -78.5 24.5t-49 61.5t-33 80l-31 80t-42.5 61.5t-67 24.5l10 -294q-9 -31 -35 -31q-18 0 -34.5 15t-20.5 36q1 21 7 338.5t9 367.5l45 -10q1 -38 6 -142.5t6 -141.5q43 1 73.5 32.5t50 76.5l39.5 89.5t52.5 76t77.5 31.5
q34 0 115 -15l-10 -40q-62 10 -71 10q-35 0 -59 -29t-40 -72.5t-35 -89t-56 -83.5t-91 -51q48 -11 83 -43t52 -72t33 -84.5l28 -80.5t33.5 -60t52.5 -24q30 0 78 12z" />
    <glyph glyph-name="afii10029" unicode="&#x41b;" horiz-adv-x="528" 
d="M-53 -94l-29 52q55 37 94 85.5t61 97t35 110.5t16.5 114.5t3.5 121.5q0 36 2.5 111.5t2.5 115.5q29 5 89 5q25 0 76 -1.5t77 -1.5q48 0 88 4q12 -67 12 -210q0 -38 -1 -119.5t-1 -123.5q0 -164 14 -270q-9 -31 -34 -31q-18 0 -35 14.5t-21 35.5q2 78 2 119q0 58 -2.5 182
t-2.5 192q0 92 2 137q-24 2 -83 3t-90 5q-9 -52 -14.5 -135.5t-9 -148t-18 -142t-39 -134.5t-74 -108.5t-121.5 -79.5z" />
    <glyph glyph-name="afii10030" unicode="&#x41c;" horiz-adv-x="736" 
d="M736 0l-76 -7q-55 345 -119 591q-33 -78 -72.5 -219.5t-54.5 -183.5q-2 0 -6.5 -0.5t-7.5 -0.5q-14 0 -46 3t-41 3q-1 29 -51 193.5t-60 210.5q-18 -162 -140 -590l-62 6q14 109 69 343t65 362q18 2 29 2q10 0 74 -8q14 -2 40.5 -90.5t53.5 -194.5t34 -125
q28 69 67.5 224t55.5 197q16 -1 101 -9q26 -101 50.5 -218l53 -266z" />
    <glyph glyph-name="afii10031" unicode="&#x41d;" horiz-adv-x="480" 
d="M349 719l58 12q18 -141 22.5 -391.5t9.5 -331.5q-9 -31 -35 -31q-18 0 -34.5 15t-20.5 36q1 36 1 120v197q-22 -1 -61.5 -4.5t-72 -5.5t-61.5 -2q-26 0 -38 1q2 -61 7 -172.5l7 -153.5q-9 -31 -35 -31q-18 0 -34.5 15t-20.5 36q3 86 5.5 334t9.5 369l45 -10
q0 -3 0.5 -9.5t0.5 -10.5q13 -246 15 -308l72.5 6.5l85 8t72.5 6.5q1 0 1 10t0.5 81t0.5 214z" />
    <glyph glyph-name="afii10032" unicode="&#x41e;" horiz-adv-x="536" 
d="M42 335v51.5t1.5 53.5t4 57t7.5 54.5t13 54l18.5 46.5t26.5 42t35 30.5t45 21.5t57 7q62 0 108 -24.5t72 -61.5t41.5 -91t20 -103t4.5 -108q0 -40 -1.5 -72t-6 -72.5t-13 -71.5t-23.5 -62.5t-35.5 -52t-51.5 -33.5t-69 -13q-62 0 -106.5 15t-73 42t-45 71t-23 96
t-6.5 123zM424 327q0 49 -7.5 102t-25 114t-55.5 99.5t-91 38.5q-40 0 -70.5 -53.5t-43.5 -120t-13 -125.5q0 -41 0.5 -62.5t3.5 -61t8.5 -62.5t17.5 -53t28.5 -46.5t43 -29t59.5 -13.5q73 4 109 82t36 191z" />
    <glyph glyph-name="afii10033" unicode="&#x41f;" horiz-adv-x="480" 
d="M56 731h351q18 -141 22.5 -391.5t9.5 -331.5q-9 -31 -35 -31q-18 0 -34.5 15t-20.5 36q0 81 -5 329.5t-5 302.5q-22 0 -71.5 -3t-79.5 -3q-48 0 -74 2q0 -3 7.5 -293t9.5 -355q-9 -31 -35 -31q-18 0 -34.5 15t-20.5 36q3 86 5.5 334t9.5 369z" />
    <glyph glyph-name="afii10034" unicode="&#x420;" horiz-adv-x="525" 
d="M57 718l45 12q0 -32 1 -36q57 38 160 38q111 0 166 -69.5t55 -194.5q0 -111 -54 -184t-163 -73q-18 0 -144 12q2 -73 8 -227q-9 -31 -35 -31q-18 0 -34.5 14.5t-20.5 35.5q3 84 6.5 327t9.5 376zM112 627l8 -312q55 -30 127 -30q69 0 117 52t48 127q0 81 -50 146t-125 65
q-61 0 -125 -48z" />
    <glyph glyph-name="afii10035" unicode="&#x421;" horiz-adv-x="540" 
d="M499 660l-40 -46q-78 58 -154 58q-50 0 -86 -24t-54.5 -58t-29 -86t-13 -90t-2.5 -89q0 -50 18.5 -113.5t62.5 -118.5t102 -55q63 0 193 66q13 -19 34 -63q-126 -87 -225 -87q-64 0 -117 39t-83.5 99t-47 125.5t-16.5 124.5q0 65 10 126.5t34 123.5t72.5 100t115.5 38
q58 0 120 -20t106 -50z" />
    <glyph glyph-name="afii10036" unicode="&#x422;" horiz-adv-x="441" 
d="M10 671l-10 45l382 22q25 -1 42 -18t17 -37q0 -13 -10 -23t-30 -12l-168 9q25 -353 37 -642q-9 -30 -34 -30q-18 0 -35 14.5t-21 35.5q2 54 2 164q0 41 -0.5 123t-0.5 123q0 119 4 215q-113 8 -175 11z" />
    <glyph glyph-name="afii10037" unicode="&#x423;" horiz-adv-x="491" 
d="M0 682l52 49q45 -74 114 -228t94 -203q100 257 151 410q13 24 33 24q18 0 32 -17.5t16 -40.5l-107.5 -237.5t-125 -269t-109.5 -201.5l-65 13l129 253q-36 99 -214 448z" />
    <glyph glyph-name="afii10038" unicode="&#x424;" horiz-adv-x="764" 
d="M340 108q2 66 4.5 241.5t5.5 263.5h-9q-108 0 -181 -79t-73 -191q0 -107 62 -172.5t173 -65.5q10 0 18 3zM397 734l4 -71q24 2 37 2q121 0 213.5 -79t92.5 -200q-1 -63 -13 -120t-38.5 -110t-76.5 -84.5t-118 -31.5q-14 0 -39 2t-32 2v-47q-9 -31 -35 -31
q-18 0 -34.5 14.5t-20.5 35.5l1 28q-7 0 -32 -2t-39 -2q-65 0 -114 29.5t-77.5 79.5t-42 110t-13.5 127q0 117 88 197.5t204 80.5q13 0 39 -4q1 4 1 18q0 6 -0.5 22.5t-0.5 24.5q0 4 0.5 10t0.5 9zM420 612h-16q9 -173 19 -504h12q131 1 187.5 59.5t56.5 175.5
q0 116 -73.5 192.5t-185.5 76.5z" />
    <glyph glyph-name="afii10039" unicode="&#x425;" horiz-adv-x="558" 
d="M43 -9l-43 22q26 61 59.5 119.5t92 148l72.5 111.5q-25 39 -102.5 150.5t-115.5 174.5l42 19q85 -99 213 -285q5 19 87.5 133t94.5 135q15 25 36 25q20 0 36 -17.5t17 -40.5q-6 -7 -103.5 -143t-121.5 -164q34 -53 130 -183.5t121 -173.5q0 -19 -9.5 -29t-24.5 -10
q-34 0 -52 33l-205 306q-31 -50 -109 -160t-115 -171z" />
    <glyph glyph-name="afii10040" unicode="&#x426;" horiz-adv-x="537" 
d="M501 -134h-46q-5 18 -23 134q-71 -8 -225 -8q-121 0 -166 5l10 368l10 368l45 -10q3 -105 8.5 -333.5t8.5 -328.5q45 0 78 -1.5t35 -1.5q16 0 119 17q4 108 13.5 334.5t12.5 323.5l45 -10q-1 -71 -1 -213q0 -192 3 -401q0 -5 0.5 -15.5t0.5 -15.5q12 0 41 -1.5t47 -1.5
q0 -4 -4.5 -86t-11.5 -123z" />
    <glyph glyph-name="afii10041" unicode="&#x427;" horiz-adv-x="470" 
d="M358 713l45 -11q4 -51 14.5 -337.5t11.5 -342.5q-9 -31 -35 -31q-18 0 -34.5 14.5t-20.5 35.5q1 17 6 276q-62 -17 -108 -17q-97 0 -146.5 66.5t-49.5 190.5q0 77 18 168l45 -10q-3 -47 -3 -88q0 -249 135 -249q45 0 111 30q5 208 11 305z" />
    <glyph glyph-name="afii10042" unicode="&#x428;" horiz-adv-x="643" 
d="M551 733l45 -10q-1 -74 -1 -197q0 -168 3.5 -315t3.5 -170v-41q-105 -11 -409 -11q-123 0 -152 3l10 368l10 368l45 -10q3 -105 8.5 -333.5t8.5 -328.5l158 7q4 110 13 339t12 324l45 -10q3 -104 8.5 -327t8.5 -321q28 2 157 7q4 108 13.5 334.5t12.5 323.5z" />
    <glyph glyph-name="afii10043" unicode="&#x429;" horiz-adv-x="707" 
d="M671 -134h-46q-5 18 -23 134q-105 -11 -409 -11q-123 0 -152 3l10 368l10 368l45 -10q3 -105 8.5 -333.5t8.5 -328.5l158 7q4 110 13 339t12 324l45 -10q3 -104 8.5 -327t8.5 -321q75 7 157 7q4 108 13.5 334.5t12.5 323.5l45 -10q-1 -109 -1 -273q0 -122 3 -341
q0 -5 0.5 -15.5t0.5 -15.5q12 0 41 -1.5t47 -1.5q0 -4 -4.5 -86t-11.5 -123z" />
    <glyph glyph-name="afii10044" unicode="&#x42a;" horiz-adv-x="599" 
d="M-6 671l-14 60q21 1 92.5 2.5t129.5 6.5q8 -132 16 -314q27 4 61 4q132 0 216 -74.5t84 -174.5q0 -203 -251 -203q-65 0 -119.5 10t-62.5 25q3 92 5 310t6 326zM223 351q7 -213 10 -284q69 -9 121 -9q141 0 141 133q0 69 -59.5 116.5t-156.5 47.5q-31 0 -56 -4z" />
    <glyph glyph-name="afii10045" unicode="&#x42b;" horiz-adv-x="700" 
d="M55 735l45 -10q1 -19 13 -299q27 4 60 4q132 0 216 -74.5t84 -174.5q0 -203 -251 -203q-65 0 -119 10t-62 25q3 84 5 340.5t9 381.5zM118 351q7 -213 10 -284q69 -9 121 -9q140 0 140 133q0 69 -59.5 116.5t-156.5 47.5q-30 0 -55 -4zM589 728l45 -10q3 -47 25 -708
q-9 -30 -34 -30q-18 0 -35 14.5t-21 35.5q2 72 7.5 318t12.5 380z" />
    <glyph glyph-name="afii10046" unicode="&#x42c;" horiz-adv-x="493" 
d="M55 735l45 -10q1 -19 13 -299q27 4 60 4q132 0 216 -74.5t84 -174.5q0 -203 -251 -203q-65 0 -119 10t-62 25q3 84 5 340.5t9 381.5zM118 351q7 -213 10 -284q69 -9 121 -9q140 0 140 133q0 69 -59.5 116.5t-156.5 47.5q-30 0 -55 -4z" />
    <glyph glyph-name="afii10047" unicode="&#x42d;" horiz-adv-x="530" 
d="M410 416q-6 127 -57.5 191.5t-128.5 64.5q-74 0 -152 -58l-40 46q44 30 105.5 50t119.5 20q54 0 96.5 -26t67.5 -65.5t41 -93.5t21.5 -102.5t5.5 -99.5q0 -59 -16 -124.5t-47 -126t-83.5 -99.5t-116.5 -39q-100 0 -226 87q19 39 35 63q130 -66 192 -66q49 0 93.5 47
t68 108t23.5 111q0 11 -2 25q-218 16 -259 43l7 36q0 1 41 3t96 4t88 2q6 0 15.5 -0.5t11.5 -0.5z" />
    <glyph glyph-name="afii10048" unicode="&#x42e;" horiz-adv-x="718" 
d="M54 731l45 -10q14 -225 19 -362l115 19q5 149 23 214q42 148 177 148q56 0 100 -27.5t70.5 -69.5t44 -98t24 -108t6.5 -104q0 -57 -5.5 -104t-22.5 -94t-44.5 -79t-75 -52t-110.5 -20q-200 0 -200 238q0 36 3 72l-103 15l11 -287q-9 -31 -35 -31q-18 0 -34.5 14.5
t-20.5 35.5q3 84 4.5 325.5t8.5 364.5zM294 306q3 -66 13 -119.5t34 -95.5t59 -42q57 0 98.5 24t63 66t31 89.5t9.5 104.5q0 52 -7.5 104.5t-24 109t-51 91.5t-81.5 35q-37 0 -66 -38t-45 -97t-24 -118.5t-9 -113.5z" />
    <glyph glyph-name="afii10049" unicode="&#x42f;" horiz-adv-x="500" 
d="M31 523q0 64 20 105.5t61 61.5t85.5 27t109.5 7q78 0 134 -10q6 -16 7.5 -76.5t3.5 -243t8 -379.5q-9 -30 -35 -30q-18 0 -34.5 14.5t-20.5 35.5q4 139 6 280q-8 0 -28 -1t-30 -1q-12 -104 -116.5 -230.5t-205.5 -149.5l-16 45q47 16 86.5 46.5t64.5 63.5t46.5 77t32 76
t21.5 72q-96 0 -148 55.5t-52 154.5zM380 379l5 260q-63 19 -115 19q-79 0 -121.5 -39.5t-42.5 -100.5q9 -152 168 -152q48 0 106 13z" />
    <glyph glyph-name="afii10065" unicode="&#x430;" horiz-adv-x="411" 
d="M77 432l-20 51q26 26 66 41.5t79 15.5q169 0 169 -292q0 -40 -4.5 -118t-4.5 -117q-8 -31 -31 -31q-18 0 -33 18t-15 40q0 7 1 10q-62 -60 -132 -60q-53 0 -92.5 38.5t-39.5 93.5q0 93 72.5 168t164.5 75q4 0 8 -0.5t9.5 -1.5t8.5 -1q-8 117 -93 117q-50 0 -113 -47z
M286 119q2 70 2 106q0 30 -2 84h-8q-71 -1 -129.5 -53t-58.5 -126q0 -32 19.5 -51t47.5 -19q44 0 129 59z" />
    <glyph glyph-name="afii10066" unicode="&#x431;" horiz-adv-x="470" 
d="M108 476q24 19 60.5 31.5t64.5 12.5q186 0 186 -215q0 -46 -7 -97.5t-24.5 -112.5t-55 -100.5t-90.5 -39.5q-57 0 -97 30t-62.5 88t-32 130.5t-9.5 169.5q0 98 24.5 175t74.5 135t112 100t150 83q6 -8 13.5 -13.5t14 -16.5t20.5 -43q-19 -11 -61 -33l-70 -37.5t-66.5 -43
t-64 -54t-48 -66t-32.5 -83.5zM342 311q0 74 -34 110.5t-91 36.5q-53 0 -86 -45.5t-33 -110.5q0 -39 6.5 -83t20 -88.5t39 -73.5t57.5 -29q121 0 121 283z" />
    <glyph glyph-name="afii10067" unicode="&#x432;" 
d="M63 513q155 33 189 33q134 0 134 -115q0 -40 -13.5 -77.5t-33.5 -49.5q78 -53 78 -146q0 -88 -57.5 -137t-151.5 -49q-112 0 -167 60zM120 262l9 -203q25 -12 57 -12q62 0 114 39t52 91q0 36 -28 66.5t-71 30.5q-25 0 -133 -12zM110 468l7 -154q15 2 46 3t50 4.5t42 15
t36.5 40.5t18.5 76q-10 30 -61 30q-23 0 -72 -7t-67 -8z" />
    <glyph glyph-name="afii10068" unicode="&#x433;" horiz-adv-x="373" 
d="M61 513q43 4 130 13.5t123 12.5q25 -1 42.5 -18.5t17.5 -37.5q0 -30 -40 -34q-37 3 -112 10t-114 10q1 -61 12 -198t11 -209q0 -62 -49 -62q-41 0 -41 56q0 66 3 141.5t9 173t8 142.5z" />
    <glyph glyph-name="afii10069" unicode="&#x434;" horiz-adv-x="540" 
d="M53 -131l-45 10q0 11 -4 65t-4 78q0 20 3 43h65q5 17 16.5 51t15.5 48l11.5 41.5t10 47t5 48.5t2.5 61q0 75 -6 169q56 -3 118.5 -4t102.5 -3t82 -9q3 -68 6.5 -223.5t6.5 -223.5h78v-30q0 -26 1.5 -74t1.5 -64q0 -30 -2 -46l-45 10q-4 14 -7.5 35.5l-7.5 46.5t-6 36
q-57 3 -181.5 12t-194.5 12zM207 468q-1 -15 -2 -62.5t-2.5 -72.5t-6 -69.5t-11.5 -74t-20.5 -64t-31.5 -59.5h219l20 394q-14 1 -73.5 3t-91.5 5z" />
    <glyph glyph-name="afii10070" unicode="&#x435;" horiz-adv-x="453" 
d="M444 97l10 -44q-44 -16 -130.5 -35.5t-128.5 -19.5q-43 0 -75 28.5t-48 73t-23.5 88t-7.5 85.5q0 250 226 250q54 0 95 -34.5t41 -89.5q0 -30 -16.5 -53t-40 -36.5t-60 -24.5t-64.5 -16t-67 -11t-54 -9q1 -29 3.5 -51t10 -47.5t20 -42t34.5 -27.5t52 -11q36 0 88 6.5
t92.5 13.5t42.5 7zM105 311q136 39 223 82q-7 33 -19 48t-36 15q-61 0 -110.5 -42t-57.5 -103z" />
    <glyph glyph-name="afii10072" unicode="&#x436;" horiz-adv-x="645" 
d="M288 326q0 153 9 217l45 -17q8 -39 8.5 -110t1.5 -90q30 5 52.5 31t37 58.5t30.5 64.5t41.5 54t60.5 22q22 0 57 -11l-4 -35q-6 1 -17 1q-33 0 -58 -21.5t-40.5 -53.5t-28.5 -64.5t-30.5 -57.5t-39.5 -30q37 -9 63.5 -50.5t40 -85t39.5 -79t64 -35.5q10 0 22 3l3 -44
q-20 -5 -35 -5q-38 0 -68.5 25t-50.5 61t-37.5 71.5t-37.5 60.5t-41 25q-9 0 -16 -3q2 -29 4.5 -61.5l5.5 -71.5t5 -61q-9 -31 -35 -31q-18 0 -34.5 14.5t-20.5 35.5q2 84 2 175q-8 3 -16 3q-21 0 -41 -25t-37.5 -60.5t-37.5 -71.5t-50.5 -61t-68.5 -25q-15 0 -35 5l3 44
q12 -3 23 -3q31 0 53 23t36 57.5l27.5 69.5t36 64t53.5 36q-22 5 -39.5 30t-30.5 57.5t-28.5 64.5t-40.5 53.5t-58 21.5q-11 0 -17 -1l-4 35q30 11 58 11q35 0 61 -21.5t41.5 -53t30 -64t35.5 -59t48 -32.5z" />
    <glyph glyph-name="afii10073" unicode="&#x437;" horiz-adv-x="355" 
d="M100 247l-4 56q3 0 9.5 -0.5t9.5 -0.5q101 0 101 88q-11 77 -85 77q-28 0 -82 -16l-18 29q42 39 120 39q55 0 92 -28t37 -82q0 -33 -13 -64.5t-34 -47.5q38 -8 59.5 -51.5t21.5 -97.5q0 -70 -45 -122t-116 -52q-35 0 -84 20t-49 50q0 21 27 21q18 0 47 -16.5t48 -16.5
q42 0 74 37t32 82q0 48 -33.5 72.5t-85.5 24.5q-20 0 -29 -1z" />
    <glyph glyph-name="afii10074" unicode="&#x438;" horiz-adv-x="477" 
d="M129 83q0 -17 2 -45q-9 -31 -35 -31q-18 0 -34.5 14.5t-20.5 35.5q3 81 7.5 237t6.5 211l46 8q12 -64 15 -170t8 -158q19 28 108 146t121 176q22 4 28 4q19 0 26.5 -17t9.5 -64l19 -412q-9 -30 -35 -30q-18 0 -34.5 14.5t-20.5 35.5q1 33 5.5 161.5t7.5 182.5
q-171 -195 -230 -299z" />
    <glyph glyph-name="afii10075" unicode="&#x439;" horiz-adv-x="477" 
d="M132 622l-7 31q24 -3 47 -3q69 0 127 38q23 -2 39 -14t16 -28q0 -13 -9 -21t-27 -11.5t-30 -4t-32 -0.5q-65 0 -124 13zM129 83q0 -17 2 -45q-9 -31 -35 -31q-18 0 -34.5 14.5t-20.5 35.5q3 81 7.5 237t6.5 211l46 8q12 -64 15 -170t8 -158q19 28 108 146t121 176
q22 4 28 4q19 0 26.5 -17t9.5 -64l19 -412q-9 -30 -35 -30q-18 0 -34.5 14.5t-20.5 35.5q1 33 5.5 161.5t7.5 182.5q-171 -195 -230 -299z" />
    <glyph glyph-name="afii10076" unicode="&#x43a;" horiz-adv-x="402" 
d="M399 25l3 -44q-24 -6 -34 -6q-38 0 -69 25t-51 61t-37.5 72t-37.5 61t-41 25q-8 0 -15 -3q4 -60 14 -194q-9 -31 -35 -31q-18 0 -34.5 14.5t-20.5 35.5q4 168 4 316q0 109 9 173l45 -16q8 -39 9 -111.5t2 -89.5q30 5 52.5 31t37 59t30.5 65t41.5 54t60.5 22q18 0 56 -12
l-4 -34q-6 1 -16 1q-40 0 -69.5 -33.5t-44 -74t-36.5 -77.5t-48 -43q37 -9 63.5 -50t40 -84.5t39.5 -79t64 -35.5q10 0 22 3z" />
    <glyph glyph-name="afii10077" unicode="&#x43b;" horiz-adv-x="422" 
d="M-66 -90l-16 43q33 13 59.5 41t43.5 58.5t29 76.5t17.5 80.5t8.5 85.5t3.5 76.5t0.5 68.5q0 61 11 73q14 15 155 15q111 0 126 1q2 -406 10 -527q-10 -30 -35 -30q-17 0 -33 14t-20 34q-1 39 -1 116q0 38 0.5 115t0.5 116q0 72 -1 108q-42 -7 -83 -8t-58 -3
q-3 -33 -5 -98l-3.5 -114.5t-12.5 -112t-31.5 -106t-63 -78t-102.5 -45.5z" />
    <glyph glyph-name="afii10078" unicode="&#x43c;" horiz-adv-x="603" 
d="M433 493l68 6q50 -135 102 -503q-17 -4 -34 -4q-15 0 -35 5q-14 55 -33.5 194t-34.5 197q-49 -80 -132 -294q-7 -1 -24.5 -4t-26.5 -3q-11 0 -26 3q-16 41 -47.5 131.5t-50.5 136.5q-96 -246 -120 -364l-39 11q5 76 55 265.5t60 241.5q12 0 27.5 -2.5t23.5 -2.5
q26 -45 71 -172.5t60 -159.5q76 216 136 318z" />
    <glyph glyph-name="afii10079" unicode="&#x43d;" horiz-adv-x="448" 
d="M340 507l45 -10l23 -485q-9 -30 -35 -30q-18 0 -35 14.5t-21 35.5q0 3 9 169v8q-28 2 -83 2q-83 0 -125 5q5 -58 13 -187q-9 -31 -35 -31q-18 0 -34.5 14.5t-20.5 35.5q3 50 3 100q0 32 -1 96t-1 95q0 96 6 161l45 -11q20 -217 21 -223q171 -9 176 -9q41 0 41 5
q0 20 4 127t5 118z" />
    <glyph glyph-name="afii10080" unicode="&#x43e;" 
d="M41 213q0 40 8.5 89t25.5 103t51 90t79 36q96 0 154 -86.5t58 -192.5q0 -45 -9.5 -89.5t-29.5 -87.5t-57.5 -71.5t-87.5 -32.5q-92 12 -142 78.5t-50 163.5zM211 479q-35 -4 -59 -64t-31 -116.5t-7 -99.5q0 -56 34.5 -103.5t77.5 -47.5q31 0 56 24t39.5 59.5t22 71.5
t7.5 64q0 82 -37 143t-103 69z" />
    <glyph glyph-name="afii10081" unicode="&#x43f;" horiz-adv-x="448" 
d="M48 500l337 -3l23 -485q-9 -30 -35 -30q-18 0 -35 14.5t-21 35.5q1 18 3.5 113.5t5.5 183t4 113.5q-28 2 -83 2q-75 0 -125 6q3 -33 5 -212.5t4 -208.5q-9 -31 -35 -31q-18 0 -34.5 14.5t-20.5 35.5q3 50 3 100q0 26 -1 86t-1 95q0 103 6 171z" />
    <glyph glyph-name="afii10082" unicode="&#x440;" horiz-adv-x="454" 
d="M53 526l56 -10q0 -21 1 -31q55 35 111 35q91 0 142 -78t51 -177q0 -50 -7.5 -95.5t-26.5 -93t-58.5 -76t-95.5 -28.5q-53 0 -102 28q4 -175 7 -260q-9 -31 -35 -31q-18 0 -34.5 14.5t-20.5 35.5zM118 420l3 -323q12 -24 37 -38.5t55 -14.5q39 0 66.5 25t39 66.5t16 77.5
t4.5 76q0 170 -115 170q-37 0 -68.5 -10.5t-37.5 -28.5z" />
    <glyph glyph-name="afii10083" unicode="&#x441;" horiz-adv-x="400" 
d="M378 496l-5 -43q-42 6 -72 6q-69 0 -114 -41.5t-61.5 -98t-16.5 -125.5q0 -32 4 -57t14.5 -49t33 -37.5t55.5 -13.5q44 0 112 17q21 8 33 8q24 0 29 -56q-88 -28 -163 -28q-109 0 -147.5 53.5t-38.5 173.5q0 70 9.5 122.5t33.5 98t69.5 69.5t111.5 24q74 0 113 -23z" />
    <glyph glyph-name="afii10084" unicode="&#x442;" horiz-adv-x="480" 
d="M9 459l-9 44q134 8 422 22q24 -1 41 -18t17 -36q0 -30 -40 -34l-187 9q5 -75 5.5 -218.5t3.5 -209.5q-9 -29 -35 -29q-17 0 -33 14t-20 34q14 246 29 413z" />
    <glyph glyph-name="afii10085" unicode="&#x443;" horiz-adv-x="437" 
d="M113 -296l-62 35q41 71 145 270q-81 72 -124 218t-52 292l58 -3q5 -24 21.5 -109.5t26.5 -126.5t35.5 -102.5t58.5 -103.5q139 267 139 438v11q52 -8 78 -19q-16 -105 -50 -214t-85 -219.5t-90.5 -185.5z" />
    <glyph glyph-name="afii10086" unicode="&#x444;" horiz-adv-x="557" 
d="M298 -279l-51 10q-4 79 -4 266q-103 0 -163 56.5t-60 153.5q0 116 62.5 207.5t171.5 92.5q-1 23 -1 55q0 33 4 107v8q13 10 33 10q22 0 40 -10q-6 -94 -6 -145v-28h7q81 0 143.5 -98t62.5 -205q0 -86 -61 -146.5t-149 -60.5q-13 0 -19 1q-2 -65 -5 -135.5t-5 -138.5z
M243 61q0 48 7.5 146.5t7.5 148.5q0 52 -5 90q-1 0 -8.5 1.5t-11.5 1.5q-66 0 -109.5 -71t-43.5 -157q0 -70 33 -116.5t97 -46.5q16 0 33 3zM321 436l-13 -377h9q77 0 114 43.5t37 110.5q0 79 -44 149t-103 74z" />
    <glyph glyph-name="afii10087" unicode="&#x445;" horiz-adv-x="364" 
d="M43 -25l-43 23q26 65 136 252q-58 79 -132 263h44q37 -78 125 -203q15 21 39.5 65t48 76t53.5 56q36 -20 36 -47q0 -15 -7 -29q-27 -33 -69 -104t-52 -86q106 -148 143 -223q0 -38 -34 -38t-52 33q-18 60 -95 170q-17 -28 -69.5 -101.5t-71.5 -106.5z" />
    <glyph glyph-name="afii10088" unicode="&#x446;" horiz-adv-x="486" 
d="M41 -3q3 55 4 254.5t8 277.5l45 -10q7 -80 10.5 -256t4.5 -192q15 1 49 1q24 0 70.5 -1t65.5 -1h28q3 62 7 218.5t8 231.5l45 -10q4 -78 4.5 -247t0.5 -193h75q-1 -28 -5 -103t-5 -112l-48 8l-20 134q-130 -4 -194 -4q-85 0 -153 4z" />
    <glyph glyph-name="afii10089" unicode="&#x447;" horiz-adv-x="419" 
d="M302 531l41 13q11 -37 21.5 -277.5t14.5 -258.5q-9 -31 -35 -31q-18 0 -34.5 15t-20.5 36q2 57 4 173q-52 -13 -86 -13q-52 0 -90 21t-58.5 58t-29.5 78.5t-9 89.5q0 38 10 100l45 -11q1 -13 3.5 -49.5t4.5 -52.5t6.5 -45.5t13 -44t21 -31.5t32 -24t45.5 -7q33 0 92 19
q0 26 5 115.5t5 111.5q0 13 -1 15z" />
    <glyph glyph-name="afii10090" unicode="&#x448;" horiz-adv-x="591" 
d="M500 520l45 -10q3 -67 3 -326q0 -129 3 -187q-76 -2 -198 -2q-236 0 -312 5q3 57 7 253.5t11 282.5l45 -11q7 -84 11 -257t5 -207q22 2 79.5 2.5t74.5 1.5q2 35 2 110q0 29 -0.5 89t-0.5 90q0 98 7 172l45 -10q6 -80 9.5 -251t4.5 -196q102 0 143 1q3 60 7.5 217t8.5 233
z" />
    <glyph glyph-name="afii10091" unicode="&#x449;" horiz-adv-x="645" 
d="M614 -145l-48 8l-19 134q-80 -2 -198 -2q-232 0 -308 5q3 57 7 253.5t11 282.5l45 -11q7 -84 11 -257t5 -207q22 2 79.5 2.5t74.5 1.5q1 89 1 289q0 98 7 172l45 -10q6 -80 9.5 -251.5t4.5 -196.5q19 1 72 1q51 0 71 1q3 60 7.5 217t8.5 233l45 -10q4 -78 4.5 -247.5
t0.5 -193.5h75q-1 -27 -5 -101.5z" />
    <glyph glyph-name="afii10092" unicode="&#x44a;" horiz-adv-x="512" 
d="M10 453l-10 45l112 4q26 0 48 -1.5t40 -3.5q2 -32 6.5 -75l10.5 -98q40 12 76 12q43 0 80 -16.5t63 -43.5t41 -61.5t15 -70.5q0 -35 -15 -63.5t-40.5 -49.5t-58.5 -32.5t-70 -11.5q-8 0 -32 1t-50 4.5t-46.5 9.5t-21.5 17q1 10 1 25v35q0 12 -0.5 37t-1.5 56.5t-1.5 67.5
t-1.5 70.5t-1.5 65t-0.5 50.5zM225 262l-8 -201q40 -14 76 -14q28 0 51.5 9.5t39.5 25t25 35.5t9 42t-9 41.5t-27 34.5t-44 23.5t-59 8.5q-11 0 -24.5 -1.5t-29.5 -3.5z" />
    <glyph glyph-name="afii10093" unicode="&#x44b;" horiz-adv-x="544" 
d="M44 507l45 -10q2 -32 6.5 -75l10.5 -98q40 12 76 12q43 0 80 -16.5t63 -43.5t41 -61.5t15 -70.5q0 -35 -13.5 -64t-38 -49.5t-58 -32t-73.5 -11.5q-24 0 -51 2.5t-49 6.5t-36.5 9.5t-14.5 12.5q0 16 -0.5 46t-1 66t-1.5 76t-1.5 77t-1 67.5t-0.5 49.5q0 56 3 107z
M115 262l-9 -201q40 -14 76 -14q28 0 51.5 9.5t39.5 25t25 35.5t9 42t-9 41.5t-27 34.5t-44 23.5t-59 8.5q-11 0 -24 -1.5zM427 510l45 -10q7 -79 15 -198.5t17 -281.5q-9 -30 -35 -30q-18 0 -34.5 14.5t-20.5 35.5q1 15 1.5 49t1.5 78t2 94l2 97t2.5 87.5t3.5 64.5z" />
    <glyph glyph-name="afii10094" unicode="&#x44c;" horiz-adv-x="401" 
d="M44 507l45 -10q2 -32 6.5 -75l10.5 -98q40 12 76 12q43 0 80 -16.5t63 -43.5t41 -61.5t15 -70.5q0 -35 -15 -64t-40 -49.5t-58 -32t-70 -11.5q-7 0 -31 1t-50.5 4.5t-47.5 9.5t-22 17q0 17 -0.5 46.5t-1 65.5t-1.5 75.5t-1.5 76.5t-1 68t-0.5 49q0 56 3 107zM115 262
l-9 -201q40 -14 76 -14q28 0 51.5 9.5t39.5 25t25 35.5t9 42t-9 41.5t-27 34.5t-44 23.5t-59 8.5q-11 0 -24 -1.5z" />
    <glyph glyph-name="afii10095" unicode="&#x44d;" horiz-adv-x="390" 
d="M281 201l-15 2q-97 12 -167 31l3 50q12 -1 73 -5t96 -5q-20 89 -59.5 137t-122.5 48q-30 0 -72 -6l-5 43q39 23 113 23q66 0 111.5 -24t69.5 -69.5t33.5 -98t9.5 -122.5q0 -57 -6.5 -94.5t-25.5 -69.5t-57 -47.5t-97 -15.5q-75 0 -163 28q5 56 29 56t76.5 -12.5
t68.5 -12.5q108 0 108 140q0 16 -1 24z" />
    <glyph glyph-name="afii10096" unicode="&#x44e;" horiz-adv-x="617" 
d="M124 200l5 -187q-9 -29 -35 -29q-17 0 -33 14t-20 34l21 441l44 -9q11 -199 11 -205q5 1 16 1q13 0 40 -2.5t40 -2.5q29 0 52 8q4 46 9 78.5t16.5 68t28 57.5t43.5 36t63 14q34 0 58.5 -9.5t47 -36t34.5 -81t12 -136.5q0 -32 -10 -73.5t-30 -85.5t-58 -74t-86 -30
q-60 0 -97.5 33.5t-37.5 96.5q0 37 1 57zM510 321q0 20 -3.5 42t-12 46t-25 39.5t-39.5 15.5q-28 0 -49 -23t-32 -58.5t-16.5 -71t-5.5 -68.5q0 -74 8 -113t22 -51.5t39 -12.5q36 0 63 45.5t39 102t12 107.5z" />
    <glyph glyph-name="afii10097" unicode="&#x44f;" horiz-adv-x="440" 
d="M384 519l15 -537q-10 -30 -34 -30q-17 0 -33.5 14t-20.5 34l10 217q-42 -27 -87 -28q-38 -125 -95.5 -183t-183.5 -93l-16 43q187 47 213 247q-48 20 -79.5 61t-31.5 94q0 106 54 141t171 35q61 0 118 -15zM329 301l-5 158q-35 11 -103 11q-48 0 -82 -21.5t-34 -69.5
q0 -54 43 -92.5t94 -38.5q60 0 87 53z" />
    <glyph glyph-name="afii10071" unicode="&#x451;" horiz-adv-x="453" 
d="M444 97l10 -44q-44 -16 -130.5 -35.5t-128.5 -19.5q-43 0 -75 28.5t-48 73t-23.5 88t-7.5 85.5q0 250 226 250q54 0 95 -34.5t41 -89.5q0 -30 -16.5 -53t-40 -36.5t-60 -24.5t-64.5 -16t-67 -11t-54 -9q1 -29 3.5 -51t10 -47.5t20 -42t34.5 -27.5t52 -11q36 0 88 6.5
t92.5 13.5t42.5 7zM105 311q136 39 223 82q-7 33 -19 48t-36 15q-61 0 -110.5 -42t-57.5 -103zM117 717q27 0 45 -23.5t18 -53.5q0 -22 -10 -35.5t-28 -13.5q-28 0 -44.5 24t-16.5 53q0 22 9.5 35.5t26.5 13.5zM323 717q27 0 45 -23.5t18 -53.5q0 -22 -10.5 -35.5
t-28.5 -13.5q-28 0 -44 24t-16 53q0 22 9.5 35.5t26.5 13.5z" />
    <glyph glyph-name="afii10099" unicode="&#x452;" horiz-adv-x="516" 
d="M10 575l-10 46l114 10q2 58 4 89l52 -12l3 -72l78 7q25 -1 42 -18t17 -37q0 -13 -10 -23t-30 -12l-96 8q2 -121 4 -160q55 58 129 58q68 0 118 -48t50 -128v-129q0 -91 -17 -140t-45 -64.5t-77 -15.5q-19 0 -43 8v36q65 14 86 47.5t21 102.5q0 9 -6 167q-15 92 -90 92
q-34 0 -67.5 -18.5t-48.5 -43.5q3 -63 4.5 -165t3.5 -157q-24 -4 -41 -4q-25 0 -42 6q2 49 2 155q0 49 -1 180t-1 226z" />
    <glyph glyph-name="afii10100" unicode="&#x453;" horiz-adv-x="373" 
d="M61 513q43 4 130 13.5t123 12.5q25 -1 42.5 -18.5t17.5 -37.5q0 -30 -40 -34q-37 3 -112 10t-114 10q1 -61 12 -198t11 -209q0 -62 -49 -62q-41 0 -41 56q0 66 3 141.5t9 173t8 142.5zM181 572l-29 28q2 3 24.5 26t46 50.5t31.5 46.5q6 4 18 4q18 0 35.5 -7.5t17.5 -18.5
q0 -24 -54 -69t-90 -60z" />
    <glyph glyph-name="afii10101" unicode="&#x454;" horiz-adv-x="400" 
d="M124 203l-14 -2q-1 -8 -1 -24q0 -140 107 -140q16 0 68.5 12.5t76.5 12.5t29 -56q-88 -28 -163 -28q-59 0 -97 15.5t-57 47.5t-25.5 69.5t-6.5 94.5q0 70 9.5 122.5t33.5 98t69.5 69.5t111.5 24q74 0 113 -23l-5 -43q-42 6 -72 6q-83 0 -122.5 -48t-59.5 -137q35 1 96 5
t73 5l3 -50q-70 -19 -167 -31z" />
    <glyph glyph-name="afii10102" unicode="&#x455;" horiz-adv-x="388" 
d="M349 482l-10 -40q-97 40 -151 40q-48 0 -67.5 -14.5t-19.5 -61.5q0 -38 27.5 -63t66.5 -39.5t78.5 -31t67 -48.5t27.5 -79q0 -64 -47 -112t-122 -49q-55 0 -103 23t-76 58l29 30q12 -5 35.5 -16t33.5 -14.5t29.5 -7.5t41.5 -4q47 0 77 21t30 59q0 25 -14 42.5t-37 28.5
t-50.5 21t-55 22.5t-50.5 30t-37 47.5t-14 71q0 60 32.5 100.5t91.5 40.5q23 0 52 -7t46 -13t50.5 -19.5z" />
    <glyph glyph-name="afii10103" unicode="&#x456;" horiz-adv-x="181" 
d="M63 514l46 -10q8 -82 14 -257.5t8 -217.5q-9 -31 -35 -31q-18 0 -34.5 14.5t-20.5 35.5q2 41 8 213.5t14 252.5zM77 693q27 0 45 -23.5t18 -53.5q0 -22 -10.5 -35.5t-28.5 -13.5q-28 0 -44 23t-16 54q0 22 9.5 35.5t26.5 13.5z" />
    <glyph glyph-name="afii10104" unicode="&#x457;" horiz-adv-x="211" 
d="M84 514l45 -10q8 -83 14.5 -260.5t8.5 -214.5q-9 -31 -35 -31q-18 0 -35 14.5t-21 35.5q2 37 8.5 211t14.5 255zM169 693q27 0 45 -23.5t18 -53.5q0 -22 -10 -35.5t-28 -13.5q-28 0 -44.5 23t-16.5 54q0 22 9.5 35.5t26.5 13.5zM15 693q27 0 45.5 -23.5t18.5 -53.5
q0 -22 -10.5 -35.5t-28.5 -13.5q-28 0 -44 23t-16 54q0 22 9 35.5t26 13.5z" />
    <glyph glyph-name="afii10105" unicode="&#x458;" horiz-adv-x="166" 
d="M-82 -187v36q36 8 62 30.5t39.5 49t21 67.5t9 71.5t1.5 75.5q0 41 -1 145.5t-2 190.5q4 44 33 44q15 0 28.5 -15t14.5 -38q0 -27 0.5 -84.5t0.5 -88.5q0 -3 0.5 -22t0.5 -35q0 -140 -10 -228t-32.5 -132.5t-50.5 -59.5t-72 -15q-19 0 -43 8zM61 695q27 0 45.5 -23.5
t18.5 -53.5q0 -22 -10.5 -35.5t-28.5 -13.5q-28 0 -44 23t-16 54q0 22 9 35.5t26 13.5z" />
    <glyph glyph-name="afii10106" unicode="&#x459;" horiz-adv-x="700" 
d="M-25 -90l-16 43q56 23 88.5 76t49 121t20.5 144.5t4 145.5q0 33 0.5 50.5t14.5 26t48.5 10t102.5 1.5h87t39 1v-202q34 10 68 10q43 0 80 -16.5t63 -43.5t41 -61.5t15 -70.5q0 -35 -15 -64t-40 -49.5t-58 -32t-70 -11.5q-115 0 -162 32q-1 15 -1 37.5v52.5v93
q0 32 0.5 58t0.5 45q1 14 0 35t-1 49v85q-21 -3 -42.5 -5t-40.5 -3t-34 -1.5t-24 -1.5q-2 -17 -3 -41.5t-2 -56.5l-4 -115q-2 -53 -10.5 -108.5t-31 -103t-62.5 -82.5t-105 -47zM414 263q2 -137 6 -206q28 -9 61 -9q28 0 51.5 9.5t39.5 25t25 35.5t9 42t-9 41.5t-27 34.5
t-44 23.5t-59 8.5q-11 0 -24 -1.5z" />
    <glyph glyph-name="afii10107" unicode="&#x45a;" horiz-adv-x="688" 
d="M385 497l3 -102q1 -34 2 -58.5t3 -39.5q40 12 76 12q43 0 80 -15t63 -40t41 -58t15 -68q0 -34 -14.5 -61t-39 -46t-58 -29.5t-72.5 -10.5q-84 0 -123 12.5t-44 38.5l9 197q-15 1 -42.5 1.5t-58.5 1t-60 2t-47 3.5q1 -9 2 -28t2.5 -42l3 -47t2.5 -44t2 -33.5l1 -13.5
q-9 -31 -35 -31q-18 0 -34.5 14.5t-20.5 35.5q3 49 3 100q0 13 -0.5 39.5t-0.5 56t-0.5 56t-0.5 39.5q0 96 6 161l45 -11l10 -95q3 -32 6 -59t5 -48q114 -6 176 -6q41 0 41 2q0 1 0.5 19t2 43t2.5 54t2 53.5t1.5 40t0.5 14.5zM393 236l2 -182q33 -13 74 -13q58 0 91.5 29
t33.5 72t-35 71t-104 28q-15 0 -30.5 -1.5t-31.5 -3.5z" />
    <glyph glyph-name="afii10108" unicode="&#x45b;" horiz-adv-x="516" 
d="M10 575l-10 46l114 10q2 58 4 89l52 -12l3 -72l78 7q25 -1 42 -18t17 -37q0 -13 -10 -23t-30 -12l-96 8q2 -121 4 -160q55 58 129 58q68 0 118 -48t50 -128v-278q-13 -6 -34 -6q-22 0 -40 4q0 8 0.5 24.5t0.5 24.5q0 40 -3 110t-3 133q-8 48 -33 70t-59 22t-67.5 -18.5
t-48.5 -43.5q3 -63 4.5 -165t3.5 -157q-24 -4 -41 -4q-25 0 -42 6q2 49 2 155q0 49 -1 180t-1 226z" />
    <glyph glyph-name="afii10109" unicode="&#x45c;" horiz-adv-x="402" 
d="M399 25l3 -44q-24 -6 -34 -6q-38 0 -69 25t-51 61t-37.5 72t-37.5 61t-41 25q-8 0 -15 -3q4 -60 14 -194q-9 -31 -35 -31q-18 0 -34.5 14.5t-20.5 35.5q4 168 4 316q0 109 9 173l45 -16q8 -39 9 -111.5t2 -89.5q30 5 52.5 31t37 59t30.5 65t41.5 54t60.5 22q18 0 56 -12
l-4 -34q-6 1 -16 1q-40 0 -69.5 -33.5t-44 -74t-36.5 -77.5t-48 -43q37 -9 63.5 -50t40 -84.5t39.5 -79t64 -35.5q10 0 22 3zM168 572l-30 28q2 3 24.5 26t46.5 50.5t32 46.5q6 4 18 4q18 0 35 -7.5t17 -18.5q0 -24 -53.5 -69t-89.5 -60z" />
    <glyph glyph-name="afii10110" unicode="&#x45e;" horiz-adv-x="437" 
d="M113 -296l-62 35q41 71 145 270q-81 72 -124 218t-52 292l58 -3q5 -24 21.5 -109.5t26.5 -126.5t35.5 -102.5t58.5 -103.5q139 267 139 438v11q52 -8 78 -19q-16 -105 -50 -214t-85 -219.5t-90.5 -185.5zM112 596l-8 32q24 -3 48 -3q69 0 127 38q23 -2 39 -14t16 -28
q0 -13 -9 -21t-27 -11.5t-30 -4t-32 -0.5q-69 0 -124 12z" />
    <glyph glyph-name="afii10193" unicode="&#x45f;" horiz-adv-x="448" 
d="M240 -146l-45 10l-10 120h-137q-6 68 -6 169q0 35 1 94.5t1 85.5q0 51 -3 100q4 21 20.5 35.5t34.5 14.5q26 0 35 -30q-2 -29 -4 -207t-5 -211q42 4 125 4h83q-1 26 -4 114t-5.5 183t-3.5 114q4 21 21 35.5t35 14.5q26 0 35 -31l-23 -484h-136z" />
    <glyph glyph-name="afii10050" unicode="&#x490;" horiz-adv-x="430" 
d="M354 839l45 10l20 -133h1l10 -45q-44 -3 -154 -9.5t-154 -10.5q3 -95 4 -318t5 -327q-9 -31 -35 -31q-18 0 -34.5 15t-20.5 36q11 126 14 589q0 17 0.5 52t0.5 55q54 -3 109 -3q22 0 66 0.5t66 0.5h41z" />
    <glyph glyph-name="afii10098" unicode="&#x491;" horiz-adv-x="373" 
d="M300 654l45 11q6 -45 11.5 -80t8.5 -52t5.5 -28.5t3 -15.5t0.5 -6q0 -30 -40 -34q-37 3 -112 10t-114 10q1 -61 12 -198t11 -209q0 -62 -49 -62q-41 0 -41 56q0 66 3 141.5t9 173t8 142.5q41 3 120.5 12t102.5 11z" />
    <glyph glyph-name="endash" unicode="&#x2013;" horiz-adv-x="644" 
d="M28 302l-8 54q162 2 272.5 5.5t279.5 6.5q23 -1 37.5 -13t14.5 -26q0 -12 -11 -21t-33 -11q-131 0 -251.5 2.5t-300.5 2.5z" />
    <glyph glyph-name="emdash" unicode="&#x2014;" horiz-adv-x="921" 
d="M28 302l-8 54q99 1 359.5 3t470.5 6q23 -1 37 -13t14 -26q0 -12 -11 -21t-33 -11q-131 0 -390 4t-439 4z" />
    <glyph glyph-name="quoteleft" unicode="&#x2018;" horiz-adv-x="167" 
d="M146 786l1 -31q-71 -24 -71 -68q0 -7 4 -23q14 2 19 2q19 0 30 -25.5t11 -49.5q0 -22 -9.5 -35.5t-26.5 -13.5q-38 0 -61 44t-23 88q0 47 31.5 78t94.5 34z" />
    <glyph glyph-name="quoteright" unicode="&#x2019;" horiz-adv-x="167" 
d="M22 542l-2 31q72 25 72 68q0 8 -4 24q-14 -2 -19 -2q-19 0 -30 25.5t-11 48.5q0 22 9 35.5t26 13.5q38 0 61 -44t23 -88q0 -47 -31 -78t-94 -34z" />
    <glyph glyph-name="quotesinglbase" unicode="&#x201a;" horiz-adv-x="208" 
d="M42 -120l-1 32q72 25 72 68q0 7 -4 23q-14 -2 -20 -2q-19 0 -30 25.5t-11 49.5q0 22 9.5 35.5t26.5 13.5q38 0 61 -44t23 -88q0 -47 -31.5 -78.5t-94.5 -34.5z" />
    <glyph glyph-name="quotedblleft" unicode="&#x201c;" horiz-adv-x="358" 
d="M337 786l1 -31q-72 -25 -72 -68q0 -7 4 -23q14 2 20 2q19 0 30 -25.5t11 -49.5q0 -22 -9.5 -35.5t-26.5 -13.5q-38 0 -61 44t-23 88q0 47 31.5 78t94.5 34zM146 793l1 -32q-71 -24 -71 -68q0 -7 4 -23q14 2 19 2q19 0 30 -25.5t11 -49.5q0 -22 -9.5 -35.5t-26.5 -13.5
q-38 0 -61 44t-23 88q0 47 31.5 78.5t94.5 34.5z" />
    <glyph glyph-name="quotedblright" unicode="&#x201d;" horiz-adv-x="358" 
d="M22 548l-2 32q37 12 54.5 28t17.5 39q0 8 -4 24q-14 -2 -19 -2q-19 0 -30 25.5t-11 48.5q0 22 9 36t26 14q38 0 61 -44.5t23 -88.5q0 -47 -31 -78t-94 -34zM212 542l-1 31q72 25 72 68q0 8 -4 24q-14 -2 -20 -2q-19 0 -30 25.5t-11 48.5q0 22 9.5 35.5t26.5 13.5
q38 0 61 -44t23 -88q0 -47 -31.5 -78t-94.5 -34z" />
    <glyph glyph-name="quotedblbase" unicode="&#x201e;" horiz-adv-x="399" 
d="M42 -120l-1 32q72 25 72 68q0 7 -4 23q-14 -2 -20 -2q-19 0 -30 25.5t-11 49.5q0 22 9.5 35.5t26.5 13.5q38 0 61 -44t23 -88q0 -47 -31.5 -78.5t-94.5 -34.5zM232 -126l-1 32q37 12 54.5 28t17.5 39q0 8 -4 24q-14 -2 -19 -2q-19 0 -30 25.5t-11 49.5q0 22 9 35.5
t26 13.5q38 0 61 -44t23 -88q0 -47 -31.5 -78.5t-94.5 -34.5z" />
    <glyph glyph-name="dagger" unicode="&#x2020;" horiz-adv-x="351" 
d="M31 452l-11 45l130 11v12q2 124 2 217l45 -10q2 -65 6 -214l68 6q25 -1 42.5 -18t17.5 -37q0 -13 -10 -23t-30 -12l-87 7v-54q0 -120 7.5 -303.5t7.5 -197.5q-9 -31 -35 -31q-18 0 -34.5 15t-20.5 36q0 3 0.5 10t1 27t1.5 50q1 17 7 187t8 266z" />
    <glyph glyph-name="daggerdbl" unicode="&#x2021;" horiz-adv-x="351" 
d="M31 452l-11 45l130 11v29q2 126 2 200l45 -10q2 -65 6 -214l68 6q25 -1 42.5 -18t17.5 -37q0 -13 -10 -23t-30 -12l-83 7v-268l113 -9l10 -45l-122 -12q3 -146 10 -221q-9 -31 -35 -31q-18 0 -34.5 15t-20.5 36q0 3 0.5 10t1 27t1.5 50q2 73 4 108l-56 -5q-25 1 -42.5 18
t-17.5 37q0 13 10 23t30 12l79 -7q6 163 8 267z" />
    <glyph glyph-name="bullet" unicode="&#x2022;" horiz-adv-x="314" 
d="M152 248q-53 0 -82 35.5t-29 82.5q0 41 23.5 79t77.5 38q72 0 101.5 -37t29.5 -88q0 -36 -31 -73t-90 -37z" />
    <glyph glyph-name="ellipsis" unicode="&#x2026;" horiz-adv-x="609" 
d="M77 125q27 0 45 -23.5t18 -53.5q0 -22 -10.5 -35.5t-28.5 -13.5q-28 0 -44 23t-16 54q0 22 9.5 35.5t26.5 13.5zM291 125q27 0 45 -23.5t18 -53.5q0 -22 -10.5 -35.5t-28.5 -13.5q-28 0 -44 23t-16 54q0 22 9.5 35.5t26.5 13.5zM505 125q27 0 45 -23.5t18 -53.5
q0 -22 -10.5 -35.5t-28.5 -13.5q-28 0 -44 23t-16 54q0 22 9.5 35.5t26.5 13.5z" />
    <glyph glyph-name="perthousand" unicode="&#x2030;" horiz-adv-x="1012" 
d="M545 773l53 -36q-20 -45 -216.5 -359.5t-221.5 -375.5q-14 -17 -35 -17q-20 0 -34.5 15.5t-14.5 36.5q0 11 6 23q48 60 222.5 326t240.5 387zM353 135q0 64 51 118.5t116 54.5q59 0 107 -49.5t48 -111.5q0 -68 -44 -120t-111 -52q-65 0 -116 45.5t-51 114.5zM519 243
q-39 0 -71.5 -32t-32.5 -72t31 -68t73 -28q40 0 68.5 30t28.5 73q0 37 -29.5 67t-67.5 30zM0 624q0 64 51 118.5t116 54.5q59 0 107 -49.5t48 -111.5q0 -68 -44 -120t-111 -52q-65 0 -116 45.5t-51 114.5zM166 731q-39 0 -72 -31.5t-33 -71.5t31.5 -68.5t73.5 -28.5
q40 0 68.5 30.5t28.5 73.5q0 36 -29.5 66t-67.5 30zM691 135q0 64 51 118.5t116 54.5q59 0 107 -49.5t48 -111.5q0 -68 -44 -120t-111 -52q-65 0 -116 45.5t-51 114.5zM857 243q-39 0 -71.5 -32t-32.5 -72t31 -68t73 -28q40 0 68.5 30t28.5 73q0 37 -29.5 67t-67.5 30z" />
    <glyph glyph-name="guilsinglleft" unicode="&#x2039;" horiz-adv-x="477" 
d="M441 61l3 -64q-65 29 -120 60.5l-152 91l-172 103.5q0 40 8 76q36 13 111.5 43l160.5 61.5t182 62.5l15 -58l-377 -164q38 -29 109 -73l143.5 -86.5t88.5 -52.5z" />
    <glyph glyph-name="guilsinglright" unicode="&#x203a;" horiz-adv-x="477" 
d="M33 -3l3 64q16 10 88.5 52.5l143.5 86.5t109 73l-377 164l15 58q97 -31 182 -62.5l160.5 -61.5t111.5 -43q8 -36 8 -76l-172 -103.5l-152 -91t-120 -60.5z" />
    <glyph glyph-name="franc" unicode="&#x20a3;" horiz-adv-x="489" 
d="M163 -6l-91 6q8 90 9 181l-71 6l2 63l71 -2q0 37 0.5 124t1.5 134.5t3.5 112t7.5 109.5q34 -3 181 -5t192 -9l10 -45q-45 -8 -179.5 -19t-141.5 -12q1 -29 4.5 -87.5t4.5 -103.5q34 -4 123.5 -11.5l113.5 -9.5l11 -45q-224 -21 -247 -21l-4 -113q188 -3 219 -1
q20 -2 30 -12t10 -23q0 -19 -16.5 -31t-42.5 -14l-198 11q-3 -101 -3 -168v-15z" />
    <glyph glyph-name="peseta" unicode="&#x20a7;" horiz-adv-x="1104" 
d="M1044 398l-8 -43q-80 33 -121 33q-38 0 -52 -10.5t-14 -42.5q0 -31 23 -52t55.5 -33.5l64.5 -26t55 -39.5t23 -65q0 -58 -42.5 -96t-107.5 -39q-67 0 -116 36q-52 -30 -123 -30q-39 0 -65.5 17t-40 51.5t-19 76t-5.5 101.5q0 22 0.5 59.5t0.5 51.5q-6 -1 -41 -1h-47
q-50 -135 -197 -135q-18 0 -144 12q2 -73 8 -227q-9 -31 -35 -31q-18 0 -34.5 14.5t-20.5 35.5q3 84 6.5 327t9.5 376l45 12q0 -32 1 -36q57 38 160 38q111 0 166 -69.5t55 -194.5q0 -33 -5 -66q10 -2 37.5 -0.5t38.5 1.5q4 95 7 139l48 -8l2 -127l65.5 -3t65.5 -4l9 -38
q-23 -2 -70 -9t-70 -8q1 -26 2 -61t1.5 -55t2 -47t4 -41.5t6 -32.5t9.5 -27t14 -18t19 -12.5t26 -3.5q19 0 50 9t49 21l30 -13l27.5 -12t25 -7t33.5 -3q40 0 64.5 17.5t24.5 49.5q0 27 -22 44.5t-54 28.5t-63.5 25t-53.5 44t-22 76q0 48 31.5 82t82.5 34q58 0 145 -45z
M112 627l8 -312q55 -30 127 -30q69 0 117 52t48 127q0 81 -50 146t-125 65q-61 0 -125 -48z" />
    <glyph glyph-name="Euro" unicode="&#x20ac;" horiz-adv-x="589" 
d="M36 232l-10 46q8 1 32 2.5t36 2.5q-4 27 -4 59v27q-4 0 -14 -0.5t-16 -0.5q-40 4 -40 34q0 20 17.5 37.5t42.5 18.5q7 -1 18 -1q8 54 23.5 100t41 86.5t67 63.5t93.5 23q58 0 119.5 -20t105.5 -50l-40 -46q-78 58 -154 58q-154 0 -179 -219q143 -5 276 -15l-11 -45
q-197 -16 -271 -20q0 -71 2 -83q110 9 241 15q25 -1 42 -18t17 -37q0 -13 -10 -23t-30 -12q-63 3 -140.5 5t-105.5 3q22 -77 64.5 -131t102.5 -54q63 0 193 66q16 -24 35 -63q-126 -87 -226 -87q-50 0 -93 23.5t-73.5 63.5t-51.5 86.5t-33 99.5q-6 0 -67 5z" />
    <glyph glyph-name="afii61352" unicode="&#x2116;" horiz-adv-x="919" 
d="M41 28l13 692h54l327 -621v79q0 302 11 543l57 -11q11 -217 18 -715q-21 -9 -44 -9q-34 0 -71 20q-61 94 -151.5 275t-128.5 248q1 -68 1.5 -248t3.5 -273q-9 -31 -35 -31q-18 0 -34.5 15t-20.5 36zM565 554q0 64 51 118.5t116 54.5q59 0 107 -49.5t48 -111.5
q0 -68 -44 -120t-111 -52q-65 0 -116 45.5t-51 114.5zM731 662q-39 0 -71.5 -32t-32.5 -72t31 -68t73 -28q40 0 68.5 30t28.5 73q0 37 -29.5 67t-67.5 30zM599 270l-10 45l251 23q25 -1 42 -18t17 -37q0 -13 -10 -23t-30 -12z" />
    <glyph glyph-name="trademark" unicode="&#x2122;" horiz-adv-x="632" 
d="M6 687l-6 27q44 2 128 6.5t125 6.5q14 -1 25 -11.5t11 -21.5q0 -17 -25 -20l-112 6q3 -47 3.5 -133.5t2.5 -123.5q-6 -19 -22 -19q-10 0 -19.5 9t-12.5 21q8 126 18 247zM530 708l41 3q28 -76 62 -301q-12 -3 -21 -3q-10 0 -21 3q-8 33 -20 116t-21 118q-32 -49 -79 -176
q-26 -4 -31 -4q-3 0 -15 2q-9 22 -28 77t-31 84q-57 -144 -72 -219l-24 7q3 45 33 156.5t36 147.5q7 0 16.5 -1.5t14.5 -1.5q16 -27 43 -103t36 -96q47 133 81 191z" />
    <glyph glyph-name="grave.alt" horiz-adv-x="171" 
d="M171 535l-42 -26q-33 26 -81 100.5t-48 114.5q0 37 33 37q30 0 50 -29q10 -43 49 -119.5t39 -77.5z" />
    </font>
</defs>
</svg>
